<svg xmlns="http://www.w3.org/2000/svg" xmlns:xlink="http://www.w3.org/1999/xlink" width="1920" zoomAndPan="magnify" viewBox="0 0 1440 809.999993" height="1080" preserveAspectRatio="xMidYMid meet" version="1.0"><defs><clipPath id="19773c19a6"><path d="M 521 138.6875 L 949 138.6875 L 949 569.1875 L 521 569.1875 Z M 521 138.6875 " clip-rule="nonzero"/></clipPath></defs><g clip-path="url(#19773c19a6)"><path fill="#ffa600" d="M 946.53125 392.359375 L 900.519531 351.734375 L 944.902344 309.359375 C 946.53125 307.796875 947.207031 305.5 946.660156 303.308594 C 946.125 301.132812 944.449219 299.394531 942.28125 298.765625 L 883.21875 281.703125 L 905.050781 224.484375 C 905.851562 222.386719 905.46875 220.007812 904.035156 218.269531 C 902.605469 216.535156 900.359375 215.671875 898.121094 216.035156 L 837.40625 225.835938 L 832.46875 164.824219 C 832.285156 162.589844 830.921875 160.605469 828.882812 159.640625 C 826.847656 158.671875 824.4375 158.871094 822.585938 160.140625 L 771.964844 194.90625 L 741.214844 141.890625 C 740.085938 139.945312 738 138.742188 735.742188 138.742188 C 733.484375 138.742188 731.398438 139.945312 730.269531 141.890625 L 694.96875 202.734375 L 633.894531 167.472656 C 631.9375 166.339844 629.527344 166.339844 627.570312 167.460938 C 625.617188 168.578125 624.40625 170.652344 624.394531 172.902344 L 624.242188 234.109375 L 562.945312 229.050781 C 560.695312 228.863281 558.507812 229.890625 557.226562 231.730469 C 555.933594 233.585938 555.738281 235.972656 556.703125 238 L 582.945312 293.359375 L 525.394531 314.953125 C 523.277344 315.746094 521.753906 317.597656 521.390625 319.824219 C 521.019531 322.039062 521.867188 324.289062 523.625 325.710938 L 571.1875 364.515625 L 528.503906 408.59375 C 526.933594 410.214844 526.351562 412.542969 526.980469 414.699219 C 527.609375 416.855469 529.34375 418.523438 531.53125 419.070312 L 591.222656 433.824219 L 571.652344 491.847656 C 570.929688 493.980469 571.40625 496.335938 572.910156 498.015625 C 574.410156 499.703125 576.695312 500.460938 578.90625 500.019531 L 639.191406 487.875 L 646.515625 548.652344 C 646.78125 550.890625 648.226562 552.800781 650.308594 553.6875 C 652.394531 554.570312 654.78125 554.28125 656.585938 552.941406 L 705.808594 516.242188 L 738.617188 566.332031 C 739.78125 568.160156 741.796875 569.265625 743.960938 569.265625 C 744.042969 569.265625 744.125 569.265625 744.207031 569.265625 C 746.464844 569.175781 748.503906 567.902344 749.550781 565.910156 L 778.203125 513.433594 L 830.152344 546.203125 C 832.0625 547.402344 834.472656 547.507812 836.476562 546.460938 C 838.476562 545.421875 839.769531 543.394531 839.863281 541.144531 L 842.414062 479.984375 L 903.464844 487.421875 C 905.703125 487.6875 907.925781 486.757812 909.289062 484.960938 C 910.648438 483.167969 910.941406 480.777344 910.054688 478.714844 L 886.003906 422.378906 L 944.355469 403.035156 C 946.496094 402.324219 948.105469 400.527344 948.558594 398.324219 C 948.988281 396.136719 948.21875 393.851562 946.53125 392.359375 Z M 946.53125 392.359375 " fill-opacity="1" fill-rule="nonzero"/></g><path fill="#ffdb2d" d="M 863.859375 352.910156 C 863.859375 355.042969 863.804688 357.171875 863.703125 359.304688 C 863.597656 361.433594 863.441406 363.558594 863.230469 365.679688 C 863.023438 367.804688 862.761719 369.917969 862.449219 372.027344 C 862.136719 374.136719 861.769531 376.238281 861.355469 378.328125 C 860.9375 380.421875 860.472656 382.5 859.953125 384.570312 C 859.4375 386.636719 858.867188 388.691406 858.25 390.730469 C 857.628906 392.773438 856.960938 394.796875 856.242188 396.804688 C 855.527344 398.8125 854.757812 400.800781 853.941406 402.769531 C 853.128906 404.742188 852.261719 406.691406 851.351562 408.617188 C 850.441406 410.542969 849.480469 412.449219 848.476562 414.328125 C 847.472656 416.210938 846.421875 418.066406 845.328125 419.894531 C 844.230469 421.722656 843.089844 423.523438 841.90625 425.296875 C 840.722656 427.070312 839.496094 428.8125 838.222656 430.523438 C 836.953125 432.238281 835.644531 433.917969 834.292969 435.566406 C 832.9375 437.214844 831.546875 438.828125 830.113281 440.410156 C 828.683594 441.988281 827.214844 443.53125 825.707031 445.039062 C 824.199219 446.546875 822.65625 448.019531 821.078125 449.449219 C 819.496094 450.882812 817.882812 452.273438 816.234375 453.628906 C 814.585938 454.980469 812.90625 456.292969 811.195312 457.5625 C 809.484375 458.832031 807.742188 460.058594 805.96875 461.242188 C 804.195312 462.429688 802.394531 463.570312 800.566406 464.664062 C 798.738281 465.761719 796.882812 466.8125 795.003906 467.816406 C 793.125 468.824219 791.21875 469.78125 789.292969 470.691406 C 787.367188 471.605469 785.417969 472.46875 783.449219 473.285156 C 781.480469 474.101562 779.492188 474.867188 777.484375 475.585938 C 775.476562 476.304688 773.453125 476.972656 771.414062 477.59375 C 769.371094 478.210938 767.320312 478.78125 765.25 479.296875 C 763.183594 479.816406 761.101562 480.28125 759.011719 480.699219 C 756.921875 481.113281 754.820312 481.480469 752.714844 481.792969 C 750.605469 482.105469 748.488281 482.367188 746.367188 482.574219 C 744.246094 482.785156 742.121094 482.941406 739.992188 483.046875 C 737.863281 483.148438 735.734375 483.203125 733.601562 483.203125 C 731.46875 483.203125 729.339844 483.148438 727.210938 483.046875 C 725.082031 482.941406 722.953125 482.785156 720.832031 482.574219 C 718.710938 482.367188 716.597656 482.105469 714.488281 481.792969 C 712.378906 481.480469 710.28125 481.113281 708.1875 480.699219 C 706.097656 480.28125 704.019531 479.816406 701.949219 479.296875 C 699.882812 478.78125 697.828125 478.210938 695.789062 477.59375 C 693.75 476.972656 691.726562 476.304688 689.71875 475.585938 C 687.710938 474.867188 685.722656 474.101562 683.753906 473.285156 C 681.785156 472.46875 679.835938 471.605469 677.910156 470.691406 C 675.980469 469.78125 674.078125 468.824219 672.199219 467.816406 C 670.316406 466.8125 668.464844 465.761719 666.636719 464.664062 C 664.804688 463.570312 663.007812 462.429688 661.234375 461.242188 C 659.460938 460.058594 657.71875 458.832031 656.007812 457.5625 C 654.292969 456.292969 652.613281 454.980469 650.964844 453.628906 C 649.320312 452.273438 647.703125 450.882812 646.125 449.449219 C 644.546875 448.019531 643.003906 446.546875 641.496094 445.039062 C 639.988281 443.53125 638.519531 441.988281 637.085938 440.410156 C 635.65625 438.828125 634.261719 437.214844 632.910156 435.566406 C 631.558594 433.917969 630.246094 432.238281 628.976562 430.523438 C 627.707031 428.8125 626.480469 427.070312 625.296875 425.296875 C 624.109375 423.523438 622.972656 421.722656 621.875 419.894531 C 620.777344 418.066406 619.730469 416.210938 618.722656 414.328125 C 617.71875 412.449219 616.761719 410.542969 615.847656 408.617188 C 614.9375 406.691406 614.074219 404.742188 613.257812 402.769531 C 612.441406 400.800781 611.675781 398.8125 610.957031 396.804688 C 610.238281 394.796875 609.570312 392.773438 608.953125 390.730469 C 608.332031 388.691406 607.765625 386.636719 607.246094 384.570312 C 606.730469 382.5 606.261719 380.421875 605.847656 378.328125 C 605.429688 376.238281 605.066406 374.136719 604.753906 372.027344 C 604.441406 369.917969 604.179688 367.804688 603.96875 365.679688 C 603.761719 363.558594 603.605469 361.433594 603.5 359.304688 C 603.394531 357.171875 603.34375 355.042969 603.34375 352.910156 C 603.34375 350.777344 603.394531 348.648438 603.5 346.515625 C 603.605469 344.386719 603.761719 342.261719 603.96875 340.140625 C 604.179688 338.015625 604.441406 335.902344 604.753906 333.792969 C 605.066406 331.683594 605.429688 329.582031 605.847656 327.492188 C 606.261719 325.398438 606.730469 323.320312 607.246094 321.25 C 607.765625 319.183594 608.332031 317.128906 608.953125 315.089844 C 609.570312 313.046875 610.238281 311.023438 610.957031 309.015625 C 611.675781 307.007812 612.441406 305.019531 613.257812 303.050781 C 614.074219 301.078125 614.9375 299.128906 615.847656 297.203125 C 616.761719 295.277344 617.71875 293.371094 618.722656 291.492188 C 619.730469 289.609375 620.777344 287.753906 621.875 285.925781 C 622.972656 284.097656 624.109375 282.296875 625.296875 280.523438 C 626.480469 278.75 627.707031 277.007812 628.976562 275.296875 C 630.246094 273.582031 631.558594 271.902344 632.910156 270.253906 C 634.261719 268.605469 635.65625 266.992188 637.085938 265.410156 C 638.519531 263.832031 639.988281 262.289062 641.496094 260.78125 C 643.003906 259.273438 644.546875 257.800781 646.125 256.371094 C 647.703125 254.9375 649.320312 253.546875 650.964844 252.191406 C 652.613281 250.839844 654.292969 249.527344 656.007812 248.257812 C 657.71875 246.988281 659.460938 245.761719 661.234375 244.578125 C 663.007812 243.390625 664.804688 242.25 666.636719 241.15625 C 668.464844 240.058594 670.316406 239.007812 672.199219 238.003906 C 674.078125 236.996094 675.980469 236.039062 677.910156 235.128906 C 679.835938 234.214844 681.785156 233.351562 683.753906 232.535156 C 685.722656 231.71875 687.710938 230.953125 689.71875 230.234375 C 691.726562 229.515625 693.75 228.847656 695.789062 228.226562 C 697.828125 227.609375 699.882812 227.039062 701.949219 226.523438 C 704.019531 226.003906 706.097656 225.539062 708.1875 225.121094 C 710.28125 224.707031 712.378906 224.339844 714.488281 224.027344 C 716.597656 223.714844 718.710938 223.453125 720.832031 223.246094 C 722.953125 223.035156 725.082031 222.878906 727.210938 222.773438 C 729.339844 222.671875 731.46875 222.617188 733.601562 222.617188 C 735.734375 222.617188 737.863281 222.671875 739.992188 222.773438 C 742.121094 222.878906 744.246094 223.035156 746.367188 223.246094 C 748.488281 223.453125 750.605469 223.714844 752.714844 224.027344 C 754.820312 224.339844 756.921875 224.707031 759.011719 225.121094 C 761.101562 225.539062 763.183594 226.003906 765.25 226.523438 C 767.320312 227.039062 769.371094 227.609375 771.414062 228.226562 C 773.453125 228.847656 775.476562 229.515625 777.484375 230.234375 C 779.492188 230.953125 781.480469 231.71875 783.449219 232.535156 C 785.417969 233.351562 787.367188 234.214844 789.292969 235.128906 C 791.21875 236.039062 793.125 236.996094 795.003906 238.003906 C 796.882812 239.007812 798.738281 240.058594 800.566406 241.15625 C 802.394531 242.25 804.195312 243.390625 805.96875 244.578125 C 807.742188 245.761719 809.484375 246.988281 811.195312 248.257812 C 812.90625 249.527344 814.585938 250.839844 816.234375 252.191406 C 817.882812 253.546875 819.496094 254.9375 821.078125 256.371094 C 822.65625 257.800781 824.199219 259.273438 825.707031 260.78125 C 827.214844 262.289062 828.683594 263.832031 830.113281 265.410156 C 831.546875 266.992188 832.9375 268.605469 834.292969 270.253906 C 835.644531 271.902344 836.953125 273.582031 838.222656 275.296875 C 839.496094 277.007812 840.722656 278.75 841.90625 280.523438 C 843.089844 282.296875 844.230469 284.097656 845.324219 285.925781 C 846.421875 287.753906 847.472656 289.609375 848.476562 291.492188 C 849.480469 293.371094 850.441406 295.277344 851.351562 297.203125 C 852.261719 299.128906 853.128906 301.078125 853.941406 303.050781 C 854.757812 305.019531 855.527344 307.007812 856.242188 309.015625 C 856.960938 311.023438 857.628906 313.046875 858.25 315.089844 C 858.867188 317.128906 859.4375 319.183594 859.953125 321.25 C 860.472656 323.320312 860.9375 325.398438 861.355469 327.492188 C 861.769531 329.582031 862.136719 331.683594 862.449219 333.792969 C 862.761719 335.902344 863.023438 338.015625 863.230469 340.140625 C 863.441406 342.261719 863.597656 344.386719 863.703125 346.515625 C 863.804688 348.648438 863.859375 350.777344 863.859375 352.910156 Z M 863.859375 352.910156 " fill-opacity="1" fill-rule="nonzero"/><path fill="#ffdb2d" d="M 863.859375 352.910156 C 863.859375 355.042969 863.804688 357.171875 863.703125 359.304688 C 863.597656 361.433594 863.441406 363.558594 863.230469 365.679688 C 863.023438 367.804688 862.761719 369.917969 862.449219 372.027344 C 862.136719 374.136719 861.769531 376.238281 861.355469 378.328125 C 860.9375 380.421875 860.472656 382.5 859.953125 384.570312 C 859.4375 386.636719 858.867188 388.691406 858.25 390.730469 C 857.628906 392.773438 856.960938 394.796875 856.242188 396.804688 C 855.527344 398.8125 854.757812 400.800781 853.941406 402.769531 C 853.128906 404.742188 852.261719 406.691406 851.351562 408.617188 C 850.441406 410.542969 849.480469 412.449219 848.476562 414.328125 C 847.472656 416.210938 846.421875 418.066406 845.328125 419.894531 C 844.230469 421.722656 843.089844 423.523438 841.90625 425.296875 C 840.722656 427.070312 839.496094 428.8125 838.222656 430.523438 C 836.953125 432.238281 835.644531 433.917969 834.292969 435.566406 C 832.9375 437.214844 831.546875 438.828125 830.113281 440.410156 C 828.683594 441.988281 827.214844 443.53125 825.707031 445.039062 C 824.199219 446.546875 822.65625 448.019531 821.078125 449.449219 C 819.496094 450.882812 817.882812 452.273438 816.234375 453.628906 C 814.585938 454.980469 812.90625 456.292969 811.195312 457.5625 C 809.484375 458.832031 807.742188 460.058594 805.96875 461.242188 C 804.195312 462.429688 802.394531 463.570312 800.566406 464.664062 C 798.738281 465.761719 796.882812 466.8125 795.003906 467.816406 C 793.125 468.824219 791.21875 469.78125 789.292969 470.691406 C 787.367188 471.605469 785.417969 472.46875 783.449219 473.285156 C 781.480469 474.101562 779.492188 474.867188 777.484375 475.585938 C 775.476562 476.304688 773.453125 476.972656 771.414062 477.59375 C 769.371094 478.210938 767.320312 478.78125 765.25 479.296875 C 763.183594 479.816406 761.101562 480.28125 759.011719 480.699219 C 756.921875 481.113281 754.820312 481.480469 752.714844 481.792969 C 750.605469 482.105469 748.488281 482.367188 746.367188 482.574219 C 744.246094 482.785156 742.121094 482.941406 739.992188 483.046875 C 737.863281 483.148438 735.734375 483.203125 733.601562 483.203125 C 731.46875 483.203125 729.339844 483.148438 727.210938 483.046875 C 725.082031 482.941406 722.953125 482.785156 720.832031 482.574219 C 718.710938 482.367188 716.597656 482.105469 714.488281 481.792969 C 712.378906 481.480469 710.28125 481.113281 708.1875 480.699219 C 706.097656 480.28125 704.019531 479.816406 701.949219 479.296875 C 699.882812 478.78125 697.828125 478.210938 695.789062 477.59375 C 693.75 476.972656 691.726562 476.304688 689.71875 475.585938 C 687.710938 474.867188 685.722656 474.101562 683.753906 473.285156 C 681.785156 472.46875 679.835938 471.605469 677.910156 470.691406 C 675.980469 469.78125 674.078125 468.824219 672.199219 467.816406 C 670.316406 466.8125 668.464844 465.761719 666.636719 464.664062 C 664.804688 463.570312 663.007812 462.429688 661.234375 461.242188 C 659.460938 460.058594 657.71875 458.832031 656.007812 457.5625 C 654.292969 456.292969 652.613281 454.980469 650.964844 453.628906 C 649.320312 452.273438 647.703125 450.882812 646.125 449.449219 C 644.546875 448.019531 643.003906 446.546875 641.496094 445.039062 C 639.988281 443.53125 638.519531 441.988281 637.085938 440.410156 C 635.65625 438.828125 634.261719 437.214844 632.910156 435.566406 C 631.558594 433.917969 630.246094 432.238281 628.976562 430.523438 C 627.707031 428.8125 626.480469 427.070312 625.296875 425.296875 C 624.109375 423.523438 622.972656 421.722656 621.875 419.894531 C 620.777344 418.066406 619.730469 416.210938 618.722656 414.328125 C 617.71875 412.449219 616.761719 410.542969 615.847656 408.617188 C 614.9375 406.691406 614.074219 404.742188 613.257812 402.769531 C 612.441406 400.800781 611.675781 398.8125 610.957031 396.804688 C 610.238281 394.796875 609.570312 392.773438 608.953125 390.730469 C 608.332031 388.691406 607.765625 386.636719 607.246094 384.570312 C 606.730469 382.5 606.261719 380.421875 605.847656 378.328125 C 605.429688 376.238281 605.066406 374.136719 604.753906 372.027344 C 604.441406 369.917969 604.179688 367.804688 603.96875 365.679688 C 603.761719 363.558594 603.605469 361.433594 603.5 359.304688 C 603.394531 357.171875 603.34375 355.042969 603.34375 352.910156 C 603.34375 350.777344 603.394531 348.648438 603.5 346.515625 C 603.605469 344.386719 603.761719 342.261719 603.96875 340.140625 C 604.179688 338.015625 604.441406 335.902344 604.753906 333.792969 C 605.066406 331.683594 605.429688 329.582031 605.847656 327.492188 C 606.261719 325.398438 606.730469 323.320312 607.246094 321.25 C 607.765625 319.183594 608.332031 317.128906 608.953125 315.089844 C 609.570312 313.046875 610.238281 311.023438 610.957031 309.015625 C 611.675781 307.007812 612.441406 305.019531 613.257812 303.050781 C 614.074219 301.078125 614.9375 299.128906 615.847656 297.203125 C 616.761719 295.277344 617.71875 293.371094 618.722656 291.492188 C 619.730469 289.609375 620.777344 287.753906 621.875 285.925781 C 622.972656 284.097656 624.109375 282.296875 625.296875 280.523438 C 626.480469 278.75 627.707031 277.007812 628.976562 275.296875 C 630.246094 273.582031 631.558594 271.902344 632.910156 270.253906 C 634.261719 268.605469 635.65625 266.992188 637.085938 265.410156 C 638.519531 263.832031 639.988281 262.289062 641.496094 260.78125 C 643.003906 259.273438 644.546875 257.800781 646.125 256.371094 C 647.703125 254.9375 649.320312 253.546875 650.964844 252.191406 C 652.613281 250.839844 654.292969 249.527344 656.007812 248.257812 C 657.71875 246.988281 659.460938 245.761719 661.234375 244.578125 C 663.007812 243.390625 664.804688 242.25 666.636719 241.15625 C 668.464844 240.058594 670.316406 239.007812 672.199219 238.003906 C 674.078125 236.996094 675.980469 236.039062 677.910156 235.128906 C 679.835938 234.214844 681.785156 233.351562 683.753906 232.535156 C 685.722656 231.71875 687.710938 230.953125 689.71875 230.234375 C 691.726562 229.515625 693.75 228.847656 695.789062 228.226562 C 697.828125 227.609375 699.882812 227.039062 701.949219 226.523438 C 704.019531 226.003906 706.097656 225.539062 708.1875 225.121094 C 710.28125 224.707031 712.378906 224.339844 714.488281 224.027344 C 716.597656 223.714844 718.710938 223.453125 720.832031 223.246094 C 722.953125 223.035156 725.082031 222.878906 727.210938 222.773438 C 729.339844 222.671875 731.46875 222.617188 733.601562 222.617188 C 735.734375 222.617188 737.863281 222.671875 739.992188 222.773438 C 742.121094 222.878906 744.246094 223.035156 746.367188 223.246094 C 748.488281 223.453125 750.605469 223.714844 752.714844 224.027344 C 754.820312 224.339844 756.921875 224.707031 759.011719 225.121094 C 761.101562 225.539062 763.183594 226.003906 765.25 226.523438 C 767.320312 227.039062 769.371094 227.609375 771.414062 228.226562 C 773.453125 228.847656 775.476562 229.515625 777.484375 230.234375 C 779.492188 230.953125 781.480469 231.71875 783.449219 232.535156 C 785.417969 233.351562 787.367188 234.214844 789.292969 235.128906 C 791.21875 236.039062 793.125 236.996094 795.003906 238.003906 C 796.882812 239.007812 798.738281 240.058594 800.566406 241.15625 C 802.394531 242.25 804.195312 243.390625 805.96875 244.578125 C 807.742188 245.761719 809.484375 246.988281 811.195312 248.257812 C 812.90625 249.527344 814.585938 250.839844 816.234375 252.191406 C 817.882812 253.546875 819.496094 254.9375 821.078125 256.371094 C 822.65625 257.800781 824.199219 259.273438 825.707031 260.78125 C 827.214844 262.289062 828.683594 263.832031 830.113281 265.410156 C 831.546875 266.992188 832.9375 268.605469 834.292969 270.253906 C 835.644531 271.902344 836.953125 273.582031 838.222656 275.296875 C 839.496094 277.007812 840.722656 278.75 841.90625 280.523438 C 843.089844 282.296875 844.230469 284.097656 845.324219 285.925781 C 846.421875 287.753906 847.472656 289.609375 848.476562 291.492188 C 849.480469 293.371094 850.441406 295.277344 851.351562 297.203125 C 852.261719 299.128906 853.128906 301.078125 853.941406 303.050781 C 854.757812 305.019531 855.527344 307.007812 856.242188 309.015625 C 856.960938 311.023438 857.628906 313.046875 858.25 315.089844 C 858.867188 317.128906 859.4375 319.183594 859.953125 321.25 C 860.472656 323.320312 860.9375 325.398438 861.355469 327.492188 C 861.769531 329.582031 862.136719 331.683594 862.449219 333.792969 C 862.761719 335.902344 863.023438 338.015625 863.230469 340.140625 C 863.441406 342.261719 863.597656 344.386719 863.703125 346.515625 C 863.804688 348.648438 863.859375 350.777344 863.859375 352.910156 Z M 863.859375 352.910156 " fill-opacity="1" fill-rule="nonzero"/><path fill="#feb1c0" d="M 813.726562 351.953125 C 822.96875 352.734375 830.886719 356.195312 836.007812 364.179688 C 841.773438 373.152344 839.1875 383.828125 830.082031 390.507812 C 817.507812 399.734375 799.101562 398.1875 788.308594 387.011719 C 780.671875 379.109375 781.417969 366.394531 789.894531 359.378906 C 793.6875 356.21875 797.890625 353.890625 802.734375 352.839844 C 807.019531 357.046875 810.152344 356.800781 813.726562 351.953125 Z M 813.726562 351.953125 " fill-opacity="1" fill-rule="nonzero"/><path fill="#feb1c0" d="M 667.203125 352.863281 C 672.6875 354.167969 677.726562 356.5 681.429688 360.765625 C 690.09375 370.683594 688.660156 382.023438 677.914062 390.585938 C 667.226562 399.09375 647.65625 398.1875 637.734375 388.734375 C 627.351562 378.816406 628.957031 364.179688 641.332031 356.722656 C 645.898438 353.980469 650.796875 352.199219 656.175781 351.953125 C 659.785156 356.769531 662.90625 357.046875 667.203125 352.863281 Z M 667.203125 352.863281 " fill-opacity="1" fill-rule="nonzero"/><path fill="#000000" d="M 813.726562 351.953125 C 810.152344 356.777344 807.03125 357.023438 802.734375 352.839844 C 802.488281 351.570312 802.234375 350.289062 802.011719 349.019531 C 801.324219 345.078125 798.519531 342.585938 794.78125 342.503906 C 790.988281 342.445312 788.167969 344.777344 787.285156 348.714844 C 787.226562 348.960938 787.203125 349.238281 787.167969 349.496094 C 786.363281 354.097656 783.851562 356.335938 780.242188 355.648438 C 776.609375 354.925781 774.816406 351.828125 775.480469 347.445312 C 777.109375 336.640625 786.167969 329.648438 797.078125 330.753906 C 807.238281 331.804688 814.46875 341 813.726562 351.953125 Z M 813.726562 351.953125 " fill-opacity="1" fill-rule="nonzero"/><path fill="#000000" d="M 667.203125 352.863281 C 662.941406 357.046875 659.785156 356.769531 656.210938 351.976562 C 655.492188 340.976562 662.6875 331.804688 672.828125 330.777344 C 683.734375 329.671875 692.757812 336.652344 694.421875 347.46875 C 695.085938 351.816406 693.257812 354.949219 689.660156 355.671875 C 686.085938 356.359375 683.574219 354.121094 682.734375 349.519531 C 681.929688 344.972656 679.21875 342.480469 675.121094 342.539062 C 671.101562 342.597656 668.554688 345.148438 667.84375 349.820312 C 667.703125 350.835938 667.425781 351.839844 667.203125 352.863281 Z M 667.203125 352.863281 " fill-opacity="1" fill-rule="nonzero"/><path fill="#000000" d="M 714.984375 365.554688 C 714.925781 363.0625 716.066406 361.171875 718.253906 360.183594 C 720.746094 359.039062 723.15625 359.460938 725.089844 361.488281 C 728.628906 365.148438 732.84375 366.695312 737.910156 365.589844 C 740.5625 365.007812 742.648438 363.515625 744.601562 361.707031 C 747.558594 358.96875 750.914062 358.910156 753.324219 361.371094 C 755.675781 363.785156 755.453125 367.28125 752.824219 370.15625 C 743.4375 380.332031 726.359375 380.273438 717.023438 370.078125 C 715.824219 368.769531 714.984375 367.382812 714.984375 365.554688 Z M 714.984375 365.554688 " fill-opacity="1" fill-rule="nonzero"/></svg>