<svg xmlns="http://www.w3.org/2000/svg" xmlns:xlink="http://www.w3.org/1999/xlink" width="1920" zoomAndPan="magnify" viewBox="0 0 1440 809.999993" height="1080" preserveAspectRatio="xMidYMid meet" version="1.0"><defs><filter x="0%" y="0%" width="100%" height="100%" id="a887b6787c"><feColorMatrix values="0 0 0 0 1 0 0 0 0 1 0 0 0 0 1 0 0 0 1 0" color-interpolation-filters="sRGB"/></filter><clipPath id="ca8424f372"><path d="M 332 160 L 856 160 L 856 466 L 332 466 Z M 332 160 " clip-rule="nonzero"/></clipPath><clipPath id="11ed36377a"><path d="M 611.597656 160.308594 C 557.046875 160.308594 510.964844 199.519531 496.628906 253.066406 C 490.660156 249.261719 483.796875 247.074219 476.453125 247.074219 C 453.75 247.074219 435.328125 267.835938 435.328125 293.425781 C 435.328125 293.6875 435.324219 293.933594 435.328125 294.195312 C 428.527344 292.625 421.398438 291.734375 414.015625 291.734375 C 369.015625 291.734375 332.496094 322.90625 332.496094 361.292969 C 332.496094 399.675781 369.019531 430.847656 414.015625 430.847656 C 431.839844 430.847656 448.308594 425.921875 461.730469 417.636719 C 469.746094 444.664062 492.367188 464.191406 519.03125 464.191406 C 537.105469 464.191406 553.304688 455.226562 564.382812 441.042969 C 575.128906 447.378906 587.769531 451.03125 601.28125 451.03125 C 619.667969 451.03125 636.449219 444.289062 649.042969 433.207031 C 666.011719 453.054688 690.964844 465.628906 718.796875 465.628906 C 752.941406 465.628906 782.78125 446.691406 798.816406 418.609375 C 801.230469 419.007812 803.707031 419.222656 806.222656 419.222656 C 833.386719 419.222656 855.390625 395.144531 855.390625 365.441406 C 855.390625 335.742188 833.386719 311.609375 806.222656 311.609375 C 801.363281 311.609375 796.664062 312.425781 792.226562 313.863281 C 777.589844 294.417969 755.707031 280.933594 730.699219 277.652344 C 725.582031 211.957031 674.207031 160.308594 611.59375 160.308594 Z M 611.597656 160.308594 " clip-rule="nonzero"/></clipPath><linearGradient x1="0.0000000150986" gradientTransform="matrix(522.895745, 0, 0, 305.318907, 332.496223, 160.308489)" y1="0" x2="1" gradientUnits="userSpaceOnUse" y2="0" id="b16313b0f3"><stop stop-opacity="1" stop-color="rgb(47.799683%, 72.898865%, 97.599792%)" offset="0"/><stop stop-opacity="1" stop-color="rgb(47.799683%, 72.898865%, 97.599792%)" offset="0.5"/><stop stop-opacity="1" stop-color="rgb(47.799683%, 72.898865%, 97.599792%)" offset="0.75"/><stop stop-opacity="1" stop-color="rgb(47.799683%, 72.898865%, 97.599792%)" offset="0.875"/><stop stop-opacity="1" stop-color="rgb(47.799683%, 72.898865%, 97.599792%)" offset="0.9375"/><stop stop-opacity="1" stop-color="rgb(47.799683%, 72.898865%, 97.599792%)" offset="0.96875"/><stop stop-opacity="1" stop-color="rgb(47.799683%, 72.898865%, 97.599792%)" offset="0.984375"/><stop stop-opacity="1" stop-color="rgb(47.799683%, 72.898865%, 97.599792%)" offset="0.992188"/><stop stop-opacity="1" stop-color="rgb(49.998474%, 49.998474%, 49.998474%)" offset="0.996094"/><stop stop-opacity="1" stop-color="rgb(52.198792%, 27.099609%, 2.398682%)" offset="1"/></linearGradient><clipPath id="5aac387de4"><path d="M 329 157.113281 L 859 157.113281 L 859 470 L 329 470 Z M 329 157.113281 " clip-rule="nonzero"/></clipPath><clipPath id="026ac22c8e"><path d="M 608.992188 157.390625 C 559.132812 157.558594 510.382812 195.097656 494.886719 248.714844 C 472.335938 235.824219 442.042969 250.738281 434.722656 277.859375 C 433.523438 281.972656 432.738281 286.285156 432.542969 290.613281 C 397.160156 283.589844 355.3125 296.640625 336.34375 333.023438 C 323.65625 356.757812 329.820312 388.957031 347.886719 406.882812 C 377.179688 438.285156 425.144531 441.601562 460.261719 422.964844 C 471.65625 457.265625 508.625 476.667969 539.375 464.042969 C 549.167969 460.472656 558.089844 453.398438 565.1875 445.503906 C 591.558594 459.84375 624.949219 457.292969 648.753906 437.871094 C 686.9375 481.09375 756.582031 479.335938 792.488281 433.515625 C 796.777344 430.214844 798 420.5625 804.257812 422.761719 C 833.257812 425.03125 860.570312 395.769531 858.242188 362.730469 C 857.292969 328.707031 826.085938 302.636719 796.804688 309.617188 C 790.765625 312.4375 788.449219 302.375 783.488281 299.835938 C 769.445312 285.929688 750.808594 278.351562 733.320312 274.53125 C 727.992188 215.199219 682.460938 166.65625 630.6875 158.949219 C 623.53125 157.726562 616.25 157.203125 608.996094 157.390625 Z M 608.992188 157.390625 " clip-rule="nonzero"/></clipPath><linearGradient x1="-0.0113313" gradientTransform="matrix(528.734305, 0, 0, 311.769647, 329.646303, 157.353649)" y1="0" x2="1.004129" gradientUnits="userSpaceOnUse" y2="0" id="975912e98d"><stop stop-opacity="1" stop-color="rgb(47.799683%, 72.898865%, 97.599792%)" offset="0"/><stop stop-opacity="1" stop-color="rgb(47.799683%, 72.898865%, 97.599792%)" offset="0.5"/><stop stop-opacity="1" stop-color="rgb(47.799683%, 72.898865%, 97.599792%)" offset="0.75"/><stop stop-opacity="1" stop-color="rgb(47.799683%, 72.898865%, 97.599792%)" offset="0.875"/><stop stop-opacity="1" stop-color="rgb(47.799683%, 72.898865%, 97.599792%)" offset="0.9375"/><stop stop-opacity="1" stop-color="rgb(47.799683%, 72.898865%, 97.599792%)" offset="0.96875"/><stop stop-opacity="1" stop-color="rgb(47.799683%, 72.898865%, 97.599792%)" offset="0.984375"/><stop stop-opacity="1" stop-color="rgb(47.799683%, 72.898865%, 97.599792%)" offset="0.992188"/><stop stop-opacity="1" stop-color="rgb(49.998474%, 49.998474%, 49.998474%)" offset="0.996094"/><stop stop-opacity="1" stop-color="rgb(52.198792%, 27.099609%, 2.398682%)" offset="1"/></linearGradient><clipPath id="4b3f2d19b2"><path d="M 328 157.113281 L 860 157.113281 L 860 471 L 328 471 Z M 328 157.113281 " clip-rule="nonzero"/></clipPath><mask id="777d96d559"><g filter="url(#a887b6787c)"><rect x="-144" width="1728" fill="#000000" y="-80.999999" height="971.999992" fill-opacity="0.72"/></g></mask><clipPath id="10f4493c0d"><path d="M 9 3 L 533 3 L 533 310 L 9 310 Z M 9 3 " clip-rule="nonzero"/></clipPath><clipPath id="1649a58540"><path d="M 288.34375 3.699219 C 233.792969 3.699219 187.710938 42.910156 173.375 96.457031 C 167.40625 92.652344 160.542969 90.464844 153.199219 90.464844 C 130.496094 90.464844 112.074219 111.226562 112.074219 136.816406 C 112.074219 137.078125 112.070312 137.324219 112.074219 137.585938 C 105.273438 136.015625 98.144531 135.125 90.761719 135.125 C 45.761719 135.125 9.242188 166.296875 9.242188 204.683594 C 9.242188 243.066406 45.765625 274.242188 90.761719 274.242188 C 108.585938 274.242188 125.054688 269.3125 138.476562 261.027344 C 146.492188 288.054688 169.113281 307.582031 195.777344 307.582031 C 213.851562 307.582031 230.050781 298.617188 241.128906 284.433594 C 251.875 290.769531 264.515625 294.421875 278.027344 294.421875 C 296.417969 294.421875 313.195312 287.679688 325.789062 276.597656 C 342.757812 296.445312 367.710938 309.019531 395.542969 309.019531 C 429.6875 309.019531 459.527344 290.082031 475.5625 262 C 477.976562 262.398438 480.453125 262.613281 482.96875 262.613281 C 510.132812 262.613281 532.136719 238.535156 532.136719 208.832031 C 532.136719 179.132812 510.132812 155 482.96875 155 C 478.109375 155 473.410156 155.816406 468.972656 157.253906 C 454.335938 137.808594 432.453125 124.328125 407.445312 121.042969 C 402.328125 55.347656 350.953125 3.699219 288.339844 3.699219 Z M 288.34375 3.699219 " clip-rule="nonzero"/></clipPath><linearGradient x1="-0.000000000143429" gradientTransform="matrix(522.89575, 0, 0, 305.318891, 9.242383, 3.699303)" y1="0" x2="1" gradientUnits="userSpaceOnUse" y2="0" id="922d6cd8c3"><stop stop-opacity="1" stop-color="rgb(47.799683%, 72.898865%, 97.599792%)" offset="0"/><stop stop-opacity="1" stop-color="rgb(47.799683%, 72.898865%, 97.599792%)" offset="0.5"/><stop stop-opacity="1" stop-color="rgb(47.799683%, 72.898865%, 97.599792%)" offset="0.75"/><stop stop-opacity="1" stop-color="rgb(47.799683%, 72.898865%, 97.599792%)" offset="0.875"/><stop stop-opacity="1" stop-color="rgb(47.799683%, 72.898865%, 97.599792%)" offset="0.9375"/><stop stop-opacity="1" stop-color="rgb(47.799683%, 72.898865%, 97.599792%)" offset="0.96875"/><stop stop-opacity="1" stop-color="rgb(47.799683%, 72.898865%, 97.599792%)" offset="0.984375"/><stop stop-opacity="1" stop-color="rgb(47.799683%, 72.898865%, 97.599792%)" offset="0.992188"/><stop stop-opacity="1" stop-color="rgb(49.998474%, 49.998474%, 49.998474%)" offset="0.996094"/><stop stop-opacity="1" stop-color="rgb(52.198792%, 27.099609%, 2.398682%)" offset="1"/></linearGradient><clipPath id="cc7fa5d56d"><path d="M 6 0.503906 L 536 0.503906 L 536 313 L 6 313 Z M 6 0.503906 " clip-rule="nonzero"/></clipPath><clipPath id="a8cc55f50b"><path d="M 285.738281 0.78125 C 235.878906 0.949219 187.128906 38.488281 171.636719 92.105469 C 149.082031 79.214844 118.789062 94.128906 111.46875 121.25 C 110.269531 125.363281 109.484375 129.675781 109.289062 134.003906 C 73.90625 126.980469 32.058594 140.03125 13.089844 176.414062 C 0.402344 200.148438 6.566406 232.347656 24.632812 250.273438 C 53.925781 281.675781 101.890625 284.992188 137.007812 266.355469 C 148.402344 300.65625 185.371094 320.058594 216.121094 307.433594 C 225.914062 303.863281 234.835938 296.789062 241.933594 288.894531 C 268.304688 303.234375 301.695312 300.683594 325.5 281.261719 C 363.683594 324.484375 433.328125 322.726562 469.234375 276.90625 C 473.523438 273.605469 474.746094 263.953125 481.003906 266.152344 C 510.003906 268.421875 537.316406 239.160156 534.988281 206.121094 C 534.039062 172.097656 502.832031 146.027344 473.550781 153.007812 C 467.511719 155.828125 465.199219 145.765625 460.234375 143.226562 C 446.191406 129.320312 427.554688 121.742188 410.066406 117.921875 C 404.738281 58.589844 359.207031 10.046875 307.433594 2.339844 C 300.277344 1.117188 292.996094 0.59375 285.742188 0.78125 Z M 285.738281 0.78125 " clip-rule="nonzero"/></clipPath><linearGradient x1="-0.0113313" gradientTransform="matrix(528.734325, 0, 0, 311.769652, 6.392454, 0.744482)" y1="0" x2="1.004129" gradientUnits="userSpaceOnUse" y2="0" id="e9cbbe408f"><stop stop-opacity="1" stop-color="rgb(47.799683%, 72.898865%, 97.599792%)" offset="0"/><stop stop-opacity="1" stop-color="rgb(47.799683%, 72.898865%, 97.599792%)" offset="0.5"/><stop stop-opacity="1" stop-color="rgb(47.799683%, 72.898865%, 97.599792%)" offset="0.75"/><stop stop-opacity="1" stop-color="rgb(47.799683%, 72.898865%, 97.599792%)" offset="0.875"/><stop stop-opacity="1" stop-color="rgb(47.799683%, 72.898865%, 97.599792%)" offset="0.9375"/><stop stop-opacity="1" stop-color="rgb(47.799683%, 72.898865%, 97.599792%)" offset="0.96875"/><stop stop-opacity="1" stop-color="rgb(47.799683%, 72.898865%, 97.599792%)" offset="0.984375"/><stop stop-opacity="1" stop-color="rgb(47.799683%, 72.898865%, 97.599792%)" offset="0.992187"/><stop stop-opacity="1" stop-color="rgb(49.998474%, 49.998474%, 49.998474%)" offset="0.996094"/><stop stop-opacity="1" stop-color="rgb(52.198792%, 27.099609%, 2.398682%)" offset="1"/></linearGradient><clipPath id="f7ec81c8bd"><path d="M 5 0.503906 L 537 0.503906 L 537 314 L 5 314 Z M 5 0.503906 " clip-rule="nonzero"/></clipPath><clipPath id="109078052a"><rect x="0" width="539" y="0" height="325"/></clipPath></defs><g clip-path="url(#ca8424f372)"><g clip-path="url(#11ed36377a)"><path fill="url(#b16313b0f3)" d="M 332.496094 160.308594 L 332.496094 465.628906 L 855.390625 465.628906 L 855.390625 160.308594 Z M 332.496094 160.308594 " fill-rule="nonzero"/></g></g><path stroke-linecap="butt" transform="matrix(0.062196, 0, 0, 0.0621987, 323.831092, 139.385432)" fill="none" stroke-linejoin="miter" d="M 4626.772005 336.392386 C 3749.692945 336.392386 3008.776247 966.806712 2778.279996 1827.707249 C 2682.313164 1766.537339 2571.963869 1731.367781 2453.889495 1731.367781 C 2088.863823 1731.367781 1792.673 2065.164568 1792.673 2476.585594 C 1792.673 2480.79338 1792.610194 2484.749955 1792.673 2488.957742 C 1683.328593 2463.711023 1568.708522 2449.391989 1450.006093 2449.391989 C 726.486524 2449.391989 139.317735 2950.55819 139.317735 3567.72113 C 139.317735 4184.821266 726.54933 4685.987468 1450.006093 4685.987468 C 1736.587672 4685.987468 2001.375737 4606.793159 2217.175497 4473.588458 C 2346.05242 4908.120908 2709.759176 5222.072015 3138.469642 5222.072015 C 3429.070775 5222.072015 3689.525258 5077.939631 3867.641708 4849.902729 C 4040.419688 4951.768841 4243.658345 5010.489443 4460.902632 5010.489443 C 4756.528206 5010.489443 5026.340712 4902.091841 5228.825702 4723.920348 C 5501.652873 5043.021284 5902.854523 5245.183439 6350.343839 5245.183439 C 6899.326873 5245.183439 7379.098226 4940.715552 7636.914878 4489.226351 C 7675.728688 4495.632235 7715.547387 4499.086388 7755.99414 4499.086388 C 8192.743714 4499.086388 8546.527197 4111.970039 8546.527197 3634.417684 C 8546.527197 3156.928132 8192.743714 2768.932544 7755.99414 2768.932544 C 7677.864076 2768.932544 7602.309038 2782.058326 7530.961969 2805.16975 C 7295.629693 2492.5375 6943.79318 2275.742297 6541.712253 2222.98796 C 6459.437024 1166.77077 5633.41885 336.392386 4626.7092 336.392386 Z M 4626.772005 336.392386 " stroke="#000000" stroke-width="2.587" stroke-opacity="1" stroke-miterlimit="4"/><g clip-path="url(#5aac387de4)"><g clip-path="url(#026ac22c8e)"><path fill="url(#975912e98d)" d="M 323.65625 157.203125 L 323.65625 481.09375 L 860.5625 481.09375 L 860.5625 157.203125 Z M 323.65625 157.203125 " fill-rule="nonzero"/></g></g><g clip-path="url(#4b3f2d19b2)"><path stroke-linecap="butt" transform="matrix(0.062196, 0, 0, 0.0621987, 323.831092, 139.385432)" fill="none" stroke-linejoin="miter" d="M 4584.880725 289.478707 C 3783.231091 292.179227 2999.418225 895.713963 2750.268735 1757.74495 C 2387.692479 1550.495769 1900.635686 1790.276791 1782.938145 2226.316507 C 1763.656851 2292.447837 1751.032941 2361.782108 1747.892666 2431.367591 C 1179.000282 2318.448188 506.164767 2528.272283 201.181171 3113.217396 C -2.811152 3494.8071 96.295955 4012.490432 386.771477 4300.692399 C 857.750057 4805.563965 1628.939014 4858.883527 2193.560622 4559.251453 C 2376.764319 5110.722683 2971.155742 5422.664101 3465.560781 5219.68551 C 3623.014215 5162.283767 3766.462018 5048.547929 3880.579645 4921.623506 C 4304.579697 5152.172519 4841.441266 5111.162302 5224.178094 4798.90687 C 5838.102033 5493.819654 6957.861616 5465.558402 7535.169939 4728.881768 C 7604.130398 4675.813417 7623.788525 4520.627742 7724.402965 4555.985709 C 8190.671131 4592.474125 8629.807314 4122.018484 8592.375225 3590.832553 C 8577.113484 3043.820321 8075.3602 2624.674554 7604.570036 2736.903125 C 7507.472705 2782.246734 7470.229033 2620.466767 7390.466025 2579.644959 C 7164.680187 2356.067055 6865.03506 2234.229658 6583.854756 2172.808537 C 6498.188029 1218.89708 5766.12691 438.446906 4933.702572 314.537017 C 4818.642863 294.879747 4701.573377 286.464174 4584.94353 289.478707 Z M 4584.880725 289.478707 " stroke="#a3ced5" stroke-width="2.587" stroke-opacity="1" stroke-miterlimit="4"/></g><g mask="url(#777d96d559)"><g transform="matrix(1, 0, 0, 1, 555, 228)"><g clip-path="url(#109078052a)"><g clip-path="url(#10f4493c0d)"><g clip-path="url(#1649a58540)"><path fill="url(#922d6cd8c3)" d="M 9.242188 3.699219 L 9.242188 309.019531 L 532.136719 309.019531 L 532.136719 3.699219 Z M 9.242188 3.699219 " fill-rule="nonzero"/></g></g><path stroke-linecap="butt" transform="matrix(0.062196, 0, 0, 0.0621987, 0.577244, -17.223711)" fill="none" stroke-linejoin="miter" d="M 4626.771076 336.388664 C 3749.692015 336.388664 3008.775318 966.80299 2778.279066 1827.703527 C 2682.312235 1766.533618 2571.962939 1731.36406 2453.888565 1731.36406 C 2088.862894 1731.36406 1792.672071 2065.160846 1792.672071 2476.581872 C 1792.672071 2480.789658 1792.609265 2484.746234 1792.672071 2488.95402 C 1683.327664 2463.707302 1568.707593 2449.388267 1450.005164 2449.388267 C 726.485595 2449.388267 139.316806 2950.554468 139.316806 3567.717408 C 139.316806 4184.817545 726.5484 4686.046549 1450.005164 4686.046549 C 1736.586743 4686.046549 2001.374807 4606.789438 2217.174568 4473.584737 C 2346.051491 4908.117186 2709.758246 5222.068294 3138.468713 5222.068294 C 3429.069845 5222.068294 3689.524329 5077.935909 3867.640778 4849.899007 C 4040.418759 4951.76512 4243.657415 5010.485721 4460.901703 5010.485721 C 4756.590082 5010.485721 5026.339782 4902.088119 5228.824773 4723.916626 C 5501.651943 5043.017562 5902.853593 5245.179717 6350.34291 5245.179717 C 6899.325944 5245.179717 7379.097297 4940.71183 7636.913949 4489.222629 C 7675.727759 4495.628513 7715.546457 4499.082666 7755.993211 4499.082666 C 8192.742784 4499.082666 8546.526268 4111.966317 8546.526268 3634.413962 C 8546.526268 3156.92441 8192.742784 2768.928822 7755.993211 2768.928822 C 7677.863146 2768.928822 7602.308108 2782.054604 7530.96104 2805.166028 C 7295.628763 2492.533779 6943.792251 2275.801378 6541.711324 2222.984238 C 6459.436095 1166.767049 5633.41792 336.388664 4626.70827 336.388664 Z M 4626.771076 336.388664 " stroke="#000000" stroke-width="2.587" stroke-opacity="1" stroke-miterlimit="4"/><g clip-path="url(#cc7fa5d56d)"><g clip-path="url(#a8cc55f50b)"><path fill="url(#e9cbbe408f)" d="M 0.402344 0.59375 L 0.402344 324.484375 L 537.308594 324.484375 L 537.308594 0.59375 Z M 0.402344 0.59375 " fill-rule="nonzero"/></g></g><g clip-path="url(#f7ec81c8bd)"><path stroke-linecap="butt" transform="matrix(0.062196, 0, 0, 0.0621987, 0.577244, -17.223711)" fill="none" stroke-linejoin="miter" d="M 4584.879795 289.474986 C 3783.230162 292.175505 2999.417296 895.710241 2750.330611 1757.741228 C 2387.691549 1550.492047 1900.634756 1790.273069 1782.937215 2226.312785 C 1763.655921 2292.444115 1751.032012 2361.778386 1747.891736 2431.363869 C 1178.999353 2318.444467 506.163837 2528.268562 201.180241 3113.213674 C -2.812082 3494.803378 96.295026 4012.486711 386.770547 4300.688678 C 857.749128 4805.560243 1628.938085 4858.879805 2193.559693 4559.247732 C 2376.763389 5110.718961 2971.154813 5422.66038 3465.559851 5219.681788 C 3623.013285 5162.280045 3766.461089 5048.544207 3880.578715 4921.619784 C 4304.578768 5152.168797 4841.440337 5111.158581 5224.177164 4798.903148 C 5838.101104 5493.815932 6957.860687 5465.55468 7535.169009 4728.878046 C 7604.129468 4675.809695 7623.787595 4520.624021 7724.402035 4555.981987 C 8190.670202 4592.470403 8629.806385 4122.014763 8592.374296 3590.828832 C 8577.112555 3043.8166 8075.359271 2624.670832 7604.569107 2736.899404 C 7507.471776 2782.243012 7470.290909 2620.463046 7390.465096 2579.641237 C 7164.679258 2356.063333 6865.034131 2234.225936 6583.853826 2172.804815 C 6498.1871 1218.893358 5766.12598 438.443185 4933.701643 314.533296 C 4818.641934 294.876025 4701.572448 286.460452 4584.942601 289.474986 Z M 4584.879795 289.474986 " stroke="#a3ced5" stroke-width="2.587" stroke-opacity="1" stroke-miterlimit="4"/></g></g></g></g></svg>