<svg xmlns="http://www.w3.org/2000/svg" xmlns:xlink="http://www.w3.org/1999/xlink" width="1920" zoomAndPan="magnify" viewBox="0 0 1440 809.999993" height="1080" preserveAspectRatio="xMidYMid meet" version="1.0"><path fill="#10462e" d="M 734.710938 396.398438 C 734.710938 395.539062 734.710938 394.679688 734.660156 393.824219 C 734.335938 390.578125 734.027344 387.328125 733.613281 384.09375 C 733.34375 381.878906 732.953125 379.6875 732.441406 377.519531 C 731.773438 374.71875 730.878906 371.957031 730.003906 369.207031 C 728.769531 365.292969 727.546875 361.371094 726.136719 357.519531 C 725.613281 356.105469 725.03125 354.683594 723.558594 353.6875 C 721.832031 352.515625 720.140625 351.777344 718.066406 352.050781 C 718.011719 352.050781 717.972656 352.140625 717.925781 352.1875 L 718.597656 352.558594 C 717.929688 352.609375 717.277344 352.742188 716.640625 352.953125 C 715.667969 353.363281 714.816406 353.945312 714.082031 354.707031 C 713.816406 355.039062 714.445312 356.09375 714.675781 356.8125 C 714.699219 356.882812 714.722656 356.953125 714.753906 357.023438 C 715.425781 358.980469 716.144531 360.921875 716.808594 362.886719 C 717.242188 364.0625 717.613281 365.253906 717.917969 366.46875 C 718.535156 369.160156 719.058594 371.910156 719.625 374.632812 C 720.382812 378.324219 721.324219 381.988281 721.859375 385.707031 C 722.351562 389.34375 722.65625 393 722.773438 396.667969 C 722.929688 400.226562 722.855469 403.789062 722.832031 407.355469 C 722.785156 414.851562 723.042969 422.355469 722.269531 429.839844 C 722.027344 432.125 722.054688 434.4375 721.8125 436.726562 C 721.34375 441.148438 720.847656 445.574219 720.222656 449.980469 C 719.65625 453.972656 718.953125 457.949219 718.207031 461.914062 C 717.617188 465.109375 716.863281 468.28125 716.191406 471.457031 C 715.519531 474.628906 714.84375 477.691406 714.171875 480.816406 C 713.25 485.308594 712.15625 489.78125 711.558594 494.320312 C 710.832031 499.699219 710.378906 505.113281 710.101562 510.53125 C 709.828125 515.953125 709.8125 521.257812 709.867188 526.617188 C 709.867188 530.101562 710.234375 533.578125 710.476562 537.046875 C 710.671875 539.789062 710.90625 542.527344 711.148438 545.261719 C 711.363281 547.738281 711.613281 550.210938 711.820312 552.660156 C 712.164062 556.292969 712.4375 559.921875 712.875 563.539062 C 713.171875 565.980469 713.3125 566.363281 715.421875 566.625 C 715.566406 566.625 715.703125 566.746094 715.84375 566.746094 C 716.515625 566.746094 717.320312 566.96875 717.859375 566.6875 C 718.445312 566.289062 718.796875 565.738281 718.917969 565.039062 C 719.117188 563.453125 719.226562 561.859375 719.253906 560.257812 C 719.410156 556.042969 718.738281 551.886719 718.292969 547.710938 C 717.980469 544.683594 717.664062 541.660156 717.621094 538.605469 C 717.582031 533.347656 717.167969 528.089844 717.851562 522.832031 C 718.207031 520.082031 718.335938 517.296875 718.523438 514.527344 C 718.894531 510.03125 719.589844 505.589844 720.609375 501.199219 C 721.421875 497.65625 722.035156 494.0625 722.867188 490.527344 C 723.605469 487.398438 724.574219 484.320312 725.351562 481.199219 C 726.265625 477.550781 727.144531 473.878906 727.929688 470.191406 C 728.902344 465.632812 729.8125 461.058594 730.664062 456.46875 C 731.175781 453.746094 731.605469 450.996094 731.917969 448.246094 C 732.363281 444.40625 732.625 440.542969 733.035156 436.707031 C 733.277344 434.480469 733.707031 432.28125 733.96875 430.054688 C 734.269531 427.296875 734.492188 424.527344 734.640625 421.757812 C 734.785156 418.988281 734.929688 416.25 734.914062 413.5 C 734.933594 407.804688 734.800781 402.101562 734.710938 396.398438 Z M 734.710938 396.398438 " fill-opacity="1" fill-rule="nonzero"/><path fill="#f7a500" d="M 704.367188 268.8125 C 672.457031 254.429688 660.792969 296.738281 679.851562 287.996094 C 706.710938 280.34375 687.285156 306.554688 702.011719 300.820312 C 702.351562 304.128906 703.683594 297.269531 704.332031 295.628906 C 711.6875 292.199219 707.019531 325.6875 720.511719 319.222656 C 733.15625 306.589844 729.835938 317.671875 731.523438 292.011719 C 734.496094 297.390625 728.835938 308.59375 734.371094 310.644531 C 754.414062 298.460938 738.539062 243.011719 704.367188 268.8125 Z M 704.367188 268.8125 " fill-opacity="1" fill-rule="nonzero"/><path fill="#f8c000" d="M 719.542969 352.550781 C 693.933594 357.175781 676.097656 324.5625 675.222656 298.558594 C 668.199219 299.339844 672.007812 293.550781 669.980469 290.167969 C 667.164062 285.980469 659.925781 282.496094 660.726562 276.929688 C 664.714844 280.429688 664.390625 276.503906 666.769531 276.132812 C 678.949219 283.679688 688.652344 270.511719 704.097656 276.914062 C 726.679688 291.917969 724.914062 329.6875 719.542969 352.550781 Z M 745.1875 265.898438 C 734.710938 257.738281 737.070312 270.359375 736.015625 278.917969 C 736.6875 283.035156 732.027344 290.445312 737.125 292.367188 C 754.609375 299.226562 748.289062 280.746094 745.1875 265.898438 Z M 745.1875 265.898438 " fill-opacity="1" fill-rule="nonzero"/><path fill="#ffd357" d="M 755.671875 287.996094 C 751.058594 279.253906 748.714844 261.46875 738.035156 262.585938 C 746.371094 278.40625 742.265625 271.957031 728.816406 276.953125 C 703.695312 292.097656 707.28125 323.519531 711.734375 348.039062 C 689.652344 360.621094 690.296875 315.566406 686.546875 301.835938 C 683.65625 292.421875 672.328125 290.1875 667.628906 282.433594 C 666.648438 279.464844 663.640625 274.191406 660.515625 277.84375 C 662.382812 399.378906 779.941406 375.464844 755.671875 287.996094 Z M 755.671875 287.996094 " fill-opacity="1" fill-rule="nonzero"/><path fill="#bdb048" d="M 710.390625 502.046875 C 709.949219 506.925781 710.019531 511.855469 709.949219 516.773438 C 709.949219 518.789062 710.042969 520.808594 710.15625 522.878906 C 710.429688 527.726562 710.738281 532.566406 711.042969 537.414062 C 711.082031 538.089844 711.164062 538.792969 711.203125 539.210938 C 709.371094 536.050781 707.625 532.527344 705.402344 529.332031 C 699.679688 521.101562 695.589844 512.03125 691.855469 502.832031 C 688.484375 494.578125 685.539062 486.175781 683.019531 477.621094 C 680.140625 467.726562 679.144531 457.492188 678.992188 447.148438 C 678.679688 426.15625 675.886719 405.570312 667.777344 386.011719 C 665.921875 381.53125 663.566406 377.269531 661.445312 372.890625 C 661.324219 372.648438 661.222656 372.402344 661.015625 371.917969 C 661.277344 372.003906 661.527344 372.113281 661.765625 372.253906 C 665.160156 375.296875 668.070312 378.753906 670.496094 382.613281 C 672.71875 386.132812 674.710938 389.851562 677.324219 393.0625 C 680.890625 397.46875 683.558594 402.390625 686.175781 407.3125 C 689.324219 413.128906 691.949219 419.207031 694.695312 425.246094 C 696.457031 429.148438 698.054688 433.128906 699.546875 437.136719 C 701.035156 441.144531 702.3125 445.03125 703.574219 449.003906 C 704.542969 451.96875 705.453125 454.957031 706.261719 457.953125 C 708.425781 465.867188 710.019531 473.894531 711.042969 482.035156 C 711.929688 488.773438 711 495.375 710.390625 502.046875 Z M 768.300781 431.292969 C 767.710938 420.917969 764.945312 411.058594 761.21875 401.429688 C 761.054688 401.027344 760.835938 400.648438 760.714844 400.40625 C 759.484375 406.460938 758.484375 412.511719 756.96875 418.414062 C 755.449219 424.320312 753.265625 429.925781 751.707031 435.765625 C 749.921875 442.488281 748.566406 449.320312 746.90625 456.078125 C 745.875 460.28125 744.679688 464.441406 743.457031 468.59375 C 742.234375 472.742188 740.976562 476.96875 739.535156 481.085938 C 737.582031 486.652344 735.425781 492.152344 733.371094 497.6875 C 731.671875 502.253906 729.878906 506.785156 728.347656 511.398438 C 726.890625 515.777344 725.546875 520.207031 724.464844 524.695312 C 723.460938 528.378906 722.84375 532.128906 722.613281 535.941406 C 722.449219 540.949219 721.445312 545.777344 719.597656 550.425781 C 718.824219 552.40625 718.050781 554.261719 718.253906 556.480469 C 718.488281 559.34375 718.507812 562.230469 718.625 565.105469 L 718.871094 565.039062 C 720.253906 561.003906 721.351562 556.894531 723.089844 553.050781 C 727.789062 542.648438 734.0625 533.179688 740.863281 524.027344 C 743.195312 520.824219 745.179688 517.417969 746.8125 513.808594 C 748.695312 509.730469 750.011719 505.40625 751.59375 501.199219 C 753.179688 496.988281 754.84375 492.925781 756.296875 488.738281 C 758.015625 483.863281 759.773438 478.980469 761.144531 474 C 762.734375 468.203125 763.976562 462.304688 765.261719 456.421875 C 765.984375 453.058594 766.410156 449.695312 767.101562 446.335938 C 768.164062 441.375 768.566406 436.359375 768.300781 431.292969 Z M 768.300781 431.292969 " fill-opacity="1" fill-rule="nonzero"/><path fill="#10462e" d="M 713.976562 530.894531 C 713.976562 530.730469 713.976562 530.5625 713.929688 530.402344 C 713.882812 530.242188 713.808594 530.101562 713.769531 529.945312 C 713.726562 529.789062 713.695312 529.628906 713.652344 529.472656 C 713.613281 529.320312 713.59375 529.152344 713.554688 528.996094 C 713.511719 528.84375 713.40625 528.699219 713.367188 528.546875 C 713.324219 528.390625 713.367188 528.210938 713.367188 528.054688 C 713.367188 527.902344 713.304688 527.734375 713.265625 527.578125 C 713.222656 527.421875 713.109375 527.28125 713.0625 527.128906 C 713.015625 526.972656 713.015625 526.804688 712.96875 526.648438 C 712.921875 526.496094 712.914062 526.335938 712.875 526.171875 C 712.835938 526.011719 712.726562 525.882812 712.679688 525.722656 C 712.632812 525.5625 712.566406 525.417969 712.527344 525.265625 C 712.484375 525.109375 712.484375 524.941406 712.4375 524.789062 C 712.390625 524.632812 712.285156 524.492188 712.238281 524.335938 C 712.191406 524.183594 712.195312 524.015625 712.148438 523.859375 C 712.101562 523.703125 712.082031 523.542969 712.035156 523.390625 C 711.988281 523.234375 711.914062 523.085938 711.867188 522.929688 C 711.820312 522.777344 711.691406 522.648438 711.644531 522.496094 C 711.597656 522.339844 711.644531 522.160156 711.59375 522.003906 C 711.539062 521.847656 711.453125 521.707031 711.40625 521.554688 C 711.359375 521.398438 711.351562 521.230469 711.296875 521.074219 C 711.242188 520.921875 711.101562 520.800781 711.046875 520.644531 C 710.996094 520.492188 711.046875 520.300781 711.007812 520.148438 C 710.96875 519.992188 710.839844 519.867188 710.785156 519.710938 C 710.734375 519.554688 710.699219 519.402344 710.652344 519.246094 C 710.605469 519.09375 710.492188 518.957031 710.445312 518.808594 L 710.289062 518.34375 L 710.128906 517.886719 C 710.074219 517.734375 710.128906 517.550781 710.066406 517.398438 C 710.007812 517.242188 709.867188 517.121094 709.8125 516.972656 C 709.757812 516.824219 709.8125 516.632812 709.746094 516.484375 C 709.679688 516.335938 709.585938 516.195312 709.53125 516.039062 C 709.476562 515.882812 709.445312 515.730469 709.390625 515.574219 C 709.335938 515.421875 709.242188 515.285156 709.1875 515.132812 C 709.136719 514.976562 709.101562 514.820312 709.046875 514.667969 C 708.992188 514.511719 708.953125 514.359375 708.898438 514.203125 C 708.847656 514.046875 708.746094 513.914062 708.691406 513.765625 C 708.636719 513.617188 708.558594 513.46875 708.496094 513.316406 L 708.335938 512.859375 C 708.273438 512.710938 708.207031 512.5625 708.15625 512.40625 C 708.101562 512.253906 708.101562 512.085938 708.039062 511.9375 C 707.980469 511.789062 707.851562 511.660156 707.796875 511.507812 C 707.746094 511.351562 707.726562 511.191406 707.664062 511.035156 C 707.605469 510.882812 707.578125 510.726562 707.523438 510.570312 C 707.46875 510.417969 707.394531 510.277344 707.34375 510.121094 C 707.289062 509.96875 707.261719 509.804688 707.207031 509.65625 C 707.152344 509.507812 707.101562 509.347656 707.046875 509.199219 C 706.992188 509.050781 706.878906 508.917969 706.816406 508.761719 C 706.757812 508.609375 706.769531 508.433594 706.710938 508.285156 C 706.648438 508.136719 706.53125 508.011719 706.476562 507.855469 C 706.421875 507.699219 706.382812 507.546875 706.320312 507.390625 C 706.261719 507.238281 706.140625 507.117188 706.078125 506.96875 C 706.019531 506.820312 706.078125 506.625 706 506.476562 C 705.917969 506.328125 705.878906 506.175781 705.824219 506.019531 C 705.769531 505.863281 705.730469 505.710938 705.667969 505.5625 C 705.609375 505.414062 705.570312 505.253906 705.507812 505.105469 C 705.449219 504.957031 705.375 504.808594 705.320312 504.65625 C 705.265625 504.5 705.207031 504.351562 705.144531 504.199219 C 705.085938 504.042969 704.992188 503.914062 704.929688 503.761719 C 704.871094 503.605469 704.890625 503.429688 704.832031 503.28125 C 704.769531 503.136719 704.710938 502.980469 704.65625 502.824219 C 704.601562 502.671875 704.460938 502.550781 704.40625 502.402344 C 704.355469 502.253906 704.292969 502.09375 704.238281 501.945312 C 704.1875 501.796875 704.125 501.640625 704.070312 501.488281 C 704.019531 501.332031 703.984375 501.171875 703.925781 501.023438 C 703.863281 500.875 703.808594 500.722656 703.757812 500.566406 C 703.703125 500.410156 703.609375 500.269531 703.554688 500.121094 C 703.5 499.976562 703.492188 499.800781 703.441406 499.644531 C 703.386719 499.492188 703.265625 499.363281 703.210938 499.207031 C 703.160156 499.054688 703.125 498.898438 703.070312 498.742188 C 703.015625 498.589844 702.992188 498.429688 702.9375 498.273438 C 702.882812 498.117188 702.800781 497.976562 702.75 497.824219 C 702.695312 497.667969 702.75 497.492188 702.667969 497.339844 C 702.585938 497.183594 702.464844 497.0625 702.417969 496.910156 L 702.257812 496.449219 C 702.203125 496.296875 702.179688 496.136719 702.125 495.980469 C 702.070312 495.824219 701.996094 495.683594 701.941406 495.53125 C 701.890625 495.375 701.890625 495.207031 701.84375 495.050781 L 701.679688 494.589844 C 701.632812 494.433594 701.628906 494.265625 701.582031 494.109375 C 701.535156 493.957031 701.425781 493.820312 701.378906 493.667969 C 701.332031 493.511719 701.324219 493.34375 701.277344 493.191406 C 701.230469 493.035156 701.144531 492.894531 701.097656 492.738281 C 701.050781 492.585938 701.03125 492.417969 700.984375 492.261719 C 700.9375 492.105469 700.902344 491.945312 700.855469 491.792969 C 700.808594 491.636719 700.679688 491.507812 700.632812 491.355469 C 700.585938 491.199219 700.558594 491.03125 700.519531 490.875 C 700.480469 490.722656 700.410156 490.566406 700.371094 490.414062 C 700.332031 490.257812 700.316406 490.089844 700.277344 489.933594 C 700.238281 489.78125 700.21875 489.613281 700.171875 489.457031 C 700.125 489.304688 699.988281 489.175781 699.949219 489.015625 C 699.90625 488.851562 699.875 488.699219 699.828125 488.542969 C 699.78125 488.386719 699.828125 488.199219 699.828125 488.046875 C 699.828125 487.890625 699.742188 487.730469 699.699219 487.574219 C 699.660156 487.421875 699.550781 487.277344 699.511719 487.117188 C 699.472656 486.957031 699.511719 486.789062 699.457031 486.632812 C 699.40625 486.480469 699.335938 486.332031 699.296875 486.167969 L 699.195312 485.691406 C 699.15625 485.539062 699.027344 485.402344 698.996094 485.242188 C 698.960938 485.082031 698.949219 484.917969 698.914062 484.765625 C 698.878906 484.609375 698.914062 484.433594 698.847656 484.28125 C 698.78125 484.125 698.71875 483.976562 698.679688 483.816406 C 698.640625 483.65625 698.679688 483.488281 698.625 483.332031 C 698.570312 483.175781 698.546875 483.015625 698.511719 482.859375 C 698.476562 482.707031 698.511719 482.53125 698.472656 482.371094 C 698.429688 482.207031 698.332031 482.066406 698.296875 481.90625 C 698.261719 481.746094 698.25 481.589844 698.222656 481.429688 C 698.195312 481.265625 698.222656 481.097656 698.167969 480.945312 C 698.113281 480.789062 698.167969 480.613281 698.167969 480.453125 C 698.167969 480.292969 698.128906 480.132812 698.101562 479.96875 C 698.074219 479.808594 698.035156 479.652344 698.007812 479.5 C 697.980469 479.34375 697.960938 479.175781 697.933594 479.015625 C 697.90625 478.851562 697.804688 478.707031 697.78125 478.542969 C 697.753906 478.382812 697.78125 478.214844 697.78125 478.054688 C 697.78125 477.890625 697.683594 477.742188 697.660156 477.582031 C 697.632812 477.421875 697.597656 477.257812 697.578125 477.097656 C 697.558594 476.9375 697.53125 476.78125 697.511719 476.621094 C 697.492188 476.460938 697.511719 476.292969 697.511719 476.128906 C 697.511719 475.96875 697.511719 475.808594 697.464844 475.644531 C 697.417969 475.484375 697.464844 475.324219 697.464844 475.160156 C 697.464844 475 697.464844 474.832031 697.464844 474.671875 C 697.464844 474.507812 697.375 474.355469 697.363281 474.195312 C 697.351562 474.03125 697.363281 473.871094 697.363281 473.710938 C 697.363281 473.546875 697.402344 473.378906 697.363281 473.21875 C 697.324219 473.058594 697.363281 472.894531 697.363281 472.734375 C 697.363281 472.574219 697.25 472.410156 697.242188 472.25 C 697.234375 472.089844 697.300781 471.925781 697.296875 471.765625 C 697.289062 471.605469 697.296875 471.441406 697.261719 471.28125 C 697.230469 471.121094 697.261719 470.953125 697.261719 470.789062 C 697.261719 470.628906 697.261719 470.46875 697.261719 470.308594 C 697.261719 470.144531 697.261719 469.984375 697.261719 469.824219 C 697.261719 469.660156 697.207031 469.492188 697.207031 469.332031 C 697.207031 469.171875 697.28125 469.007812 697.289062 468.847656 C 697.296875 468.6875 697.242188 468.523438 697.25 468.363281 C 697.253906 468.203125 697.25 468.035156 697.25 467.871094 C 697.273438 467.695312 697.359375 467.554688 697.511719 467.457031 C 697.628906 467.332031 697.773438 467.269531 697.949219 467.265625 C 698.125 467.246094 698.277344 467.296875 698.410156 467.414062 C 698.53125 467.546875 698.574219 467.699219 698.539062 467.871094 C 698.539062 468.035156 698.585938 468.203125 698.585938 468.363281 C 698.585938 468.523438 698.523438 468.691406 698.523438 468.855469 C 698.523438 469.015625 698.597656 469.183594 698.597656 469.34375 C 698.597656 469.507812 698.496094 469.675781 698.496094 469.835938 C 698.496094 469.996094 698.546875 470.164062 698.550781 470.328125 C 698.558594 470.488281 698.550781 470.65625 698.550781 470.824219 C 698.550781 470.992188 698.550781 471.148438 698.550781 471.316406 C 698.550781 471.484375 698.550781 471.644531 698.550781 471.804688 C 698.550781 471.96875 698.640625 472.128906 698.644531 472.296875 C 698.652344 472.464844 698.691406 472.621094 698.707031 472.78125 C 698.71875 472.941406 698.617188 473.117188 698.625 473.277344 C 698.632812 473.441406 698.625 473.609375 698.664062 473.769531 C 698.707031 473.929688 698.773438 474.09375 698.785156 474.253906 C 698.800781 474.414062 698.785156 474.582031 698.785156 474.746094 C 698.785156 474.90625 698.839844 475.066406 698.855469 475.230469 C 698.867188 475.390625 698.855469 475.558594 698.855469 475.726562 C 698.855469 475.894531 698.855469 476.050781 698.894531 476.210938 C 698.933594 476.371094 698.894531 476.539062 698.894531 476.703125 L 698.953125 477.191406 C 698.953125 477.355469 699.035156 477.507812 699.054688 477.675781 C 699.074219 477.84375 699.054688 478.007812 699.054688 478.167969 C 699.054688 478.328125 699.144531 478.492188 699.167969 478.652344 C 699.195312 478.8125 699.167969 478.980469 699.210938 479.140625 C 699.25 479.304688 699.332031 479.453125 699.359375 479.613281 C 699.382812 479.773438 699.359375 479.941406 699.417969 480.105469 C 699.476562 480.265625 699.363281 480.441406 699.417969 480.601562 C 699.472656 480.761719 699.539062 480.917969 699.574219 481.074219 C 699.605469 481.226562 699.632812 481.394531 699.667969 481.554688 C 699.699219 481.71875 699.726562 481.878906 699.761719 482.039062 C 699.792969 482.203125 699.847656 482.351562 699.882812 482.511719 C 699.914062 482.671875 699.882812 482.839844 699.921875 482.996094 C 699.960938 483.148438 700.0625 483.296875 700.097656 483.460938 C 700.128906 483.621094 700.054688 483.796875 700.097656 483.957031 C 700.136719 484.117188 700.277344 484.246094 700.316406 484.40625 C 700.359375 484.570312 700.269531 484.75 700.316406 484.90625 C 700.363281 485.058594 700.457031 485.207031 700.492188 485.363281 L 700.613281 485.832031 C 700.613281 485.996094 700.742188 486.136719 700.78125 486.296875 C 700.820312 486.457031 700.839844 486.613281 700.882812 486.769531 C 700.921875 486.921875 700.882812 487.097656 700.941406 487.253906 L 701.0625 487.722656 C 701.109375 487.882812 701.128906 488.046875 701.171875 488.199219 C 701.210938 488.355469 701.238281 488.515625 701.285156 488.671875 C 701.332031 488.824219 701.472656 488.953125 701.519531 489.113281 C 701.566406 489.277344 701.59375 489.425781 701.632812 489.585938 C 701.675781 489.746094 701.675781 489.910156 701.714844 490.0625 C 701.753906 490.21875 701.835938 490.367188 701.882812 490.519531 L 702.023438 490.992188 C 702.070312 491.144531 702.097656 491.300781 702.144531 491.460938 C 702.191406 491.621094 702.285156 491.75 702.332031 491.914062 C 702.378906 492.074219 702.332031 492.242188 702.398438 492.394531 C 702.464844 492.550781 702.5625 492.683594 702.613281 492.839844 C 702.667969 492.996094 702.667969 493.164062 702.714844 493.316406 C 702.761719 493.472656 702.78125 493.632812 702.828125 493.789062 C 702.875 493.941406 702.976562 494.085938 703.023438 494.230469 C 703.070312 494.378906 703.117188 494.542969 703.171875 494.695312 C 703.226562 494.851562 703.257812 495.011719 703.304688 495.167969 C 703.351562 495.320312 703.425781 495.460938 703.480469 495.617188 C 703.535156 495.773438 703.589844 495.925781 703.636719 496.082031 C 703.683594 496.234375 703.730469 496.390625 703.78125 496.546875 C 703.835938 496.699219 703.910156 496.839844 703.964844 496.996094 C 704.019531 497.152344 704.011719 497.320312 704.066406 497.472656 C 704.117188 497.628906 704.234375 497.753906 704.285156 497.910156 C 704.339844 498.066406 704.355469 498.226562 704.40625 498.382812 C 704.460938 498.535156 704.574219 498.664062 704.628906 498.816406 C 704.683594 498.972656 704.628906 499.148438 704.714844 499.300781 C 704.804688 499.457031 704.851562 499.597656 704.902344 499.746094 C 704.957031 499.894531 705.078125 500.027344 705.132812 500.183594 C 705.1875 500.335938 705.199219 500.507812 705.253906 500.652344 C 705.308594 500.800781 705.339844 500.96875 705.394531 501.117188 C 705.449219 501.265625 705.550781 501.40625 705.601562 501.5625 C 705.65625 501.714844 705.636719 501.890625 705.691406 502.046875 C 705.742188 502.199219 705.789062 502.355469 705.851562 502.503906 C 705.910156 502.652344 706.085938 502.765625 706.140625 502.914062 C 706.195312 503.0625 706.140625 503.257812 706.199219 503.410156 C 706.261719 503.566406 706.410156 503.679688 706.46875 503.828125 C 706.53125 503.976562 706.542969 504.152344 706.597656 504.296875 C 706.648438 504.445312 706.648438 504.628906 706.710938 504.777344 C 706.769531 504.921875 706.886719 505.050781 706.945312 505.207031 C 707.007812 505.359375 707.058594 505.507812 707.113281 505.664062 C 707.167969 505.816406 707.207031 505.972656 707.261719 506.128906 C 707.316406 506.28125 707.4375 506.402344 707.496094 506.558594 C 707.558594 506.710938 707.609375 506.855469 707.671875 507.007812 C 707.730469 507.164062 707.671875 507.34375 707.75 507.5 C 707.832031 507.652344 707.84375 507.808594 707.90625 507.957031 C 707.964844 508.105469 708.09375 508.230469 708.15625 508.378906 C 708.214844 508.527344 708.203125 508.710938 708.253906 508.863281 C 708.308594 509.019531 708.375 509.167969 708.429688 509.316406 C 708.484375 509.460938 708.625 509.589844 708.679688 509.738281 C 708.730469 509.886719 708.730469 510.066406 708.785156 510.222656 C 708.839844 510.378906 708.960938 510.5 709.019531 510.652344 C 709.082031 510.808594 709.074219 510.976562 709.128906 511.128906 C 709.183594 511.285156 709.328125 511.398438 709.382812 511.554688 L 709.550781 512.003906 C 709.613281 512.160156 709.660156 512.3125 709.710938 512.46875 C 709.765625 512.625 709.820312 512.769531 709.875 512.925781 C 709.925781 513.082031 709.914062 513.253906 709.96875 513.410156 C 710.019531 513.566406 710.128906 513.691406 710.1875 513.847656 C 710.25 514 710.308594 514.144531 710.371094 514.296875 L 710.539062 514.75 C 710.597656 514.902344 710.539062 515.085938 710.617188 515.238281 C 710.699219 515.394531 710.753906 515.535156 710.808594 515.691406 C 710.859375 515.84375 710.996094 515.957031 711.054688 516.113281 C 711.117188 516.269531 711.054688 516.449219 711.128906 516.605469 C 711.203125 516.757812 711.25 516.898438 711.304688 517.054688 C 711.359375 517.210938 711.382812 517.371094 711.4375 517.523438 C 711.492188 517.679688 711.644531 517.792969 711.691406 517.949219 C 711.742188 518.105469 711.691406 518.285156 711.765625 518.441406 C 711.839844 518.59375 711.921875 518.730469 711.976562 518.875 C 712.027344 519.023438 712.121094 519.171875 712.175781 519.320312 C 712.230469 519.46875 712.175781 519.664062 712.230469 519.816406 C 712.285156 519.972656 712.363281 520.113281 712.410156 520.269531 C 712.457031 520.421875 712.558594 520.558594 712.613281 520.710938 C 712.667969 520.867188 712.613281 521.050781 712.679688 521.203125 C 712.746094 521.359375 712.792969 521.507812 712.839844 521.660156 C 712.886719 521.816406 713.035156 521.9375 713.089844 522.089844 C 713.144531 522.246094 713.164062 522.40625 713.210938 522.5625 C 713.257812 522.714844 713.3125 522.871094 713.359375 523.027344 C 713.40625 523.179688 713.359375 523.355469 713.425781 523.511719 C 713.492188 523.664062 713.558594 523.804688 713.605469 523.960938 C 713.652344 524.117188 713.652344 524.289062 713.699219 524.445312 C 713.75 524.597656 713.820312 524.746094 713.867188 524.902344 C 713.914062 525.058594 713.9375 525.21875 713.984375 525.371094 C 714.03125 525.527344 714.042969 525.6875 714.089844 525.84375 C 714.136719 526 714.246094 526.140625 714.292969 526.292969 C 714.339844 526.449219 714.394531 526.601562 714.441406 526.757812 C 714.488281 526.914062 714.554688 527.0625 714.59375 527.214844 C 714.632812 527.371094 714.59375 527.558594 714.59375 527.710938 C 714.59375 527.867188 714.722656 528.015625 714.761719 528.171875 C 714.800781 528.324219 714.816406 528.492188 714.855469 528.648438 C 714.894531 528.800781 714.984375 528.949219 715.023438 529.105469 C 715.0625 529.257812 715.0625 529.425781 715.105469 529.589844 C 715.144531 529.75 715.226562 529.890625 715.257812 530.046875 C 715.292969 530.199219 715.257812 530.375 715.328125 530.53125 C 715.386719 530.707031 715.375 530.878906 715.292969 531.046875 C 715.199219 531.195312 715.003906 531.234375 714.84375 531.289062 C 714.679688 531.339844 714.523438 531.320312 714.371094 531.234375 C 714.171875 531.164062 714.023438 531.09375 713.976562 530.894531 Z M 735.371094 511.394531 C 735.324219 511.546875 735.222656 511.6875 735.183594 511.84375 C 735.144531 511.996094 735.136719 512.164062 735.089844 512.328125 C 735.042969 512.488281 735 512.636719 734.953125 512.792969 C 734.90625 512.945312 734.847656 513.09375 734.800781 513.253906 C 734.753906 513.417969 734.800781 513.585938 734.734375 513.738281 C 734.664062 513.894531 734.558594 514.027344 734.511719 514.183594 C 734.464844 514.339844 734.398438 514.484375 734.351562 514.640625 C 734.304688 514.796875 734.351562 514.96875 734.28125 515.125 C 734.214844 515.28125 734.15625 515.425781 734.109375 515.582031 C 734.0625 515.738281 733.980469 515.878906 733.933594 516.039062 C 733.886719 516.199219 733.894531 516.363281 733.847656 516.515625 C 733.800781 516.671875 733.78125 516.832031 733.734375 516.988281 C 733.683594 517.140625 733.585938 517.28125 733.539062 517.4375 C 733.492188 517.59375 733.539062 517.765625 733.449219 517.921875 C 733.363281 518.078125 733.300781 518.210938 733.253906 518.367188 C 733.207031 518.519531 733.128906 518.667969 733.082031 518.824219 C 733.035156 518.976562 733.007812 519.140625 732.960938 519.292969 C 732.914062 519.449219 732.960938 519.628906 732.886719 519.785156 C 732.8125 519.9375 732.699219 520.058594 732.644531 520.214844 C 732.589844 520.371094 732.585938 520.539062 732.539062 520.6875 C 732.488281 520.832031 732.390625 520.980469 732.335938 521.136719 C 732.28125 521.289062 732.335938 521.472656 732.28125 521.628906 C 732.226562 521.78125 732.066406 521.894531 732.011719 522.050781 C 731.960938 522.207031 732.011719 522.378906 731.925781 522.535156 C 731.839844 522.691406 731.8125 522.835938 731.757812 522.992188 C 731.703125 523.148438 731.703125 523.316406 731.65625 523.46875 C 731.609375 523.625 731.542969 523.773438 731.488281 523.925781 C 731.4375 524.082031 731.390625 524.234375 731.335938 524.382812 C 731.28125 524.53125 731.128906 524.660156 731.074219 524.808594 C 731.019531 524.957031 731.074219 525.152344 731.011719 525.304688 C 730.953125 525.460938 730.804688 525.574219 730.75 525.730469 C 730.695312 525.882812 730.695312 526.050781 730.644531 526.207031 C 730.589844 526.359375 730.515625 526.503906 730.460938 526.65625 C 730.410156 526.8125 730.386719 526.972656 730.335938 527.128906 C 730.28125 527.28125 730.199219 527.421875 730.148438 527.570312 C 730.09375 527.71875 730.011719 527.867188 729.957031 528.023438 C 729.90625 528.175781 729.890625 528.34375 729.832031 528.492188 C 729.769531 528.640625 729.742188 528.808594 729.691406 528.957031 C 729.636719 529.105469 729.570312 529.257812 729.515625 529.414062 C 729.460938 529.570312 729.414062 529.714844 729.355469 529.871094 C 729.292969 530.027344 729.1875 530.152344 729.125 530.308594 C 729.066406 530.464844 729.085938 530.636719 729.03125 530.785156 C 728.976562 530.933594 728.878906 531.074219 728.816406 531.230469 C 728.757812 531.382812 728.675781 531.519531 728.621094 531.671875 C 728.570312 531.828125 728.515625 531.976562 728.453125 532.128906 C 728.394531 532.285156 728.300781 532.414062 728.246094 532.566406 C 728.191406 532.722656 728.117188 532.863281 728.058594 533.019531 C 727.996094 533.171875 727.992188 533.339844 727.929688 533.488281 C 727.871094 533.636719 727.75 533.765625 727.6875 533.917969 C 727.628906 534.074219 727.636719 534.242188 727.574219 534.398438 C 727.515625 534.550781 727.433594 534.6875 727.375 534.832031 C 727.3125 534.980469 727.328125 535.164062 727.265625 535.316406 C 727.207031 535.472656 727.050781 535.582031 726.992188 535.726562 C 726.929688 535.875 726.875 536.03125 726.816406 536.179688 C 726.753906 536.328125 726.667969 536.472656 726.609375 536.621094 C 726.546875 536.769531 726.480469 536.917969 726.414062 537.066406 C 726.347656 537.214844 726.3125 537.375 726.25 537.523438 C 726.191406 537.671875 726.125 537.824219 726.0625 537.972656 C 726.003906 538.121094 725.984375 538.289062 725.914062 538.4375 C 725.847656 538.585938 725.726562 538.707031 725.660156 538.863281 C 725.59375 539.015625 725.546875 539.15625 725.480469 539.3125 C 725.414062 539.46875 725.433594 539.640625 725.371094 539.789062 C 725.3125 539.9375 725.238281 540.085938 725.175781 540.234375 C 725.117188 540.382812 725.050781 540.535156 724.984375 540.683594 C 724.914062 540.832031 724.835938 540.964844 724.769531 541.121094 L 724.578125 541.566406 C 724.511719 541.710938 724.480469 541.875 724.417969 542.023438 C 724.359375 542.171875 724.238281 542.296875 724.171875 542.445312 C 724.101562 542.59375 724.101562 542.769531 724.035156 542.917969 C 723.96875 543.0625 723.886719 543.207031 723.820312 543.355469 C 723.753906 543.5 723.660156 543.636719 723.59375 543.785156 C 723.527344 543.933594 723.484375 544.09375 723.417969 544.242188 C 723.351562 544.390625 723.210938 544.503906 723.144531 544.652344 C 723.074219 544.800781 723.09375 544.980469 723.027344 545.128906 L 722.828125 545.574219 C 722.761719 545.71875 722.671875 545.855469 722.597656 546.003906 C 722.523438 546.152344 722.492188 546.304688 722.417969 546.453125 C 722.34375 546.601562 722.234375 546.730469 722.167969 546.871094 L 721.96875 547.3125 C 721.894531 547.460938 721.785156 547.589844 721.710938 547.730469 C 721.636719 547.871094 721.625 548.046875 721.550781 548.195312 C 721.476562 548.34375 721.371094 548.464844 721.300781 548.613281 C 721.234375 548.761719 721.195312 548.921875 721.128906 549.070312 C 721.0625 549.21875 720.953125 549.34375 720.886719 549.492188 C 720.820312 549.640625 720.730469 549.769531 720.664062 549.917969 C 720.597656 550.0625 720.597656 550.238281 720.53125 550.378906 C 720.464844 550.523438 720.371094 550.65625 720.296875 550.804688 C 720.222656 550.953125 720.167969 551.09375 720.09375 551.234375 C 720.019531 551.375 719.914062 551.503906 719.839844 551.644531 C 719.765625 551.785156 719.671875 551.921875 719.605469 552.0625 C 719.535156 552.203125 719.542969 552.390625 719.46875 552.53125 C 719.394531 552.671875 719.320312 552.808594 719.246094 552.957031 C 719.175781 553.105469 718.992188 553.183594 718.925781 553.324219 C 718.859375 553.46875 718.777344 553.609375 718.710938 553.75 C 718.644531 553.890625 718.625 554.066406 718.550781 554.207031 C 718.476562 554.347656 718.347656 554.460938 718.273438 554.601562 C 718.199219 554.746094 718.160156 554.90625 718.085938 555.046875 L 717.859375 555.472656 C 717.785156 555.613281 717.789062 555.792969 717.714844 555.933594 C 717.644531 556.074219 717.542969 556.203125 717.46875 556.34375 C 717.394531 556.484375 717.285156 556.605469 717.214844 556.75 C 717.140625 556.890625 717.113281 557.058594 717.039062 557.199219 C 716.964844 557.339844 716.84375 557.460938 716.769531 557.601562 C 716.695312 557.742188 716.636719 557.890625 716.5625 558.03125 C 716.488281 558.175781 716.359375 558.289062 716.285156 558.429688 C 716.210938 558.570312 716.207031 558.746094 716.132812 558.886719 C 716.058594 559.027344 715.964844 559.164062 715.890625 559.296875 C 715.816406 559.429688 715.703125 559.566406 715.628906 559.699219 C 715.519531 559.855469 715.476562 560.03125 715.507812 560.21875 C 715.570312 560.40625 715.683594 560.550781 715.851562 560.65625 C 716.019531 560.753906 716.203125 560.777344 716.394531 560.734375 C 716.585938 560.6875 716.730469 560.574219 716.824219 560.398438 C 716.898438 560.257812 716.902344 560.078125 716.976562 559.9375 C 717.050781 559.792969 717.1875 559.6875 717.265625 559.546875 C 717.347656 559.40625 717.367188 559.238281 717.449219 559.09375 C 717.527344 558.953125 717.574219 558.800781 717.65625 558.65625 L 717.871094 558.226562 C 717.953125 558.085938 718.046875 557.953125 718.121094 557.8125 L 718.355469 557.386719 C 718.429688 557.246094 718.515625 557.113281 718.589844 556.96875 C 718.664062 556.828125 718.792969 556.714844 718.863281 556.574219 C 718.9375 556.433594 718.960938 556.257812 719.03125 556.109375 L 719.261719 555.6875 C 719.335938 555.542969 719.460938 555.429688 719.535156 555.289062 C 719.609375 555.148438 719.699219 555.007812 719.773438 554.867188 C 719.84375 554.722656 719.832031 554.535156 719.90625 554.386719 C 719.980469 554.242188 720.113281 554.140625 720.1875 554 C 720.261719 553.855469 720.316406 553.695312 720.390625 553.554688 C 720.464844 553.414062 720.539062 553.273438 720.609375 553.125 C 720.683594 552.976562 720.777344 552.855469 720.851562 552.707031 C 720.925781 552.558594 720.980469 552.410156 721.054688 552.269531 C 721.128906 552.128906 721.148438 551.960938 721.214844 551.8125 C 721.28125 551.664062 721.421875 551.558594 721.496094 551.417969 C 721.570312 551.273438 721.589844 551.101562 721.664062 550.957031 C 721.738281 550.816406 721.804688 550.667969 721.875 550.523438 C 721.941406 550.375 722.082031 550.265625 722.15625 550.125 C 722.230469 549.984375 722.277344 549.824219 722.34375 549.679688 C 722.410156 549.539062 722.464844 549.378906 722.53125 549.238281 C 722.597656 549.097656 722.710938 548.960938 722.78125 548.820312 C 722.847656 548.679688 722.867188 548.503906 722.933594 548.355469 C 723 548.207031 723.117188 548.085938 723.183594 547.941406 C 723.25 547.792969 723.25 547.617188 723.316406 547.46875 C 723.382812 547.320312 723.539062 547.21875 723.605469 547.070312 C 723.671875 546.925781 723.699219 546.761719 723.765625 546.613281 C 723.835938 546.46875 723.929688 546.339844 723.996094 546.191406 C 724.0625 546.042969 724.109375 545.886719 724.175781 545.742188 C 724.242188 545.59375 724.351562 545.472656 724.417969 545.324219 C 724.484375 545.175781 724.480469 545 724.546875 544.851562 C 724.613281 544.707031 724.648438 544.542969 724.714844 544.394531 C 724.78125 544.246094 724.941406 544.148438 725.007812 544 C 725.078125 543.851562 725.128906 543.703125 725.199219 543.554688 C 725.265625 543.40625 725.246094 543.226562 725.3125 543.078125 C 725.378906 542.929688 725.460938 542.796875 725.527344 542.648438 C 725.59375 542.5 725.632812 542.34375 725.699219 542.195312 C 725.769531 542.050781 725.847656 541.90625 725.914062 541.765625 C 725.984375 541.625 726.058594 541.476562 726.117188 541.328125 C 726.179688 541.179688 726.265625 541.039062 726.324219 540.890625 L 726.519531 540.449219 C 726.582031 540.300781 726.609375 540.132812 726.667969 539.984375 C 726.730469 539.835938 726.847656 539.714844 726.910156 539.566406 C 726.96875 539.417969 726.996094 539.257812 727.0625 539.109375 C 727.132812 538.960938 727.21875 538.820312 727.277344 538.671875 C 727.339844 538.527344 727.332031 538.351562 727.394531 538.203125 C 727.453125 538.054688 727.535156 537.914062 727.601562 537.765625 C 727.667969 537.617188 727.824219 537.511719 727.882812 537.363281 C 727.945312 537.214844 727.945312 537.03125 728.003906 536.882812 C 728.066406 536.738281 728.117188 536.589844 728.179688 536.433594 L 728.359375 535.992188 C 728.421875 535.84375 728.453125 535.679688 728.515625 535.53125 C 728.574219 535.386719 728.6875 535.257812 728.75 535.109375 C 728.808594 534.960938 728.796875 534.78125 728.855469 534.632812 C 728.917969 534.484375 729.078125 534.375 729.140625 534.222656 C 729.199219 534.066406 729.140625 533.886719 729.214844 533.730469 C 729.285156 533.578125 729.441406 533.476562 729.5 533.328125 C 729.5625 533.179688 729.554688 533.003906 729.617188 532.855469 C 729.675781 532.707031 729.730469 532.554688 729.785156 532.40625 C 729.835938 532.257812 729.84375 532.082031 729.90625 531.9375 C 729.964844 531.789062 730.039062 531.640625 730.097656 531.492188 C 730.160156 531.34375 730.265625 531.210938 730.320312 531.0625 C 730.375 530.914062 730.433594 530.757812 730.496094 530.609375 C 730.554688 530.464844 730.628906 530.316406 730.683594 530.167969 C 730.738281 530.019531 730.8125 529.871094 730.863281 529.714844 C 730.917969 529.5625 730.863281 529.378906 730.933594 529.226562 C 731 529.070312 731.054688 528.929688 731.113281 528.78125 C 731.175781 528.632812 731.273438 528.5 731.328125 528.34375 C 731.382812 528.191406 731.410156 528.027344 731.460938 527.878906 L 731.625 527.421875 C 731.675781 527.277344 731.75 527.128906 731.804688 526.980469 C 731.859375 526.832031 731.867188 526.65625 731.917969 526.507812 C 731.972656 526.359375 732.101562 526.234375 732.15625 526.078125 C 732.207031 525.925781 732.195312 525.75 732.25 525.601562 C 732.300781 525.453125 732.394531 525.3125 732.449219 525.15625 C 732.503906 525.003906 732.585938 524.867188 732.636719 524.714844 C 732.691406 524.558594 732.699219 524.398438 732.753906 524.242188 L 732.914062 523.785156 C 732.960938 523.636719 733.035156 523.488281 733.082031 523.335938 C 733.128906 523.179688 733.167969 523.027344 733.214844 522.871094 L 733.371094 522.414062 C 733.417969 522.257812 733.484375 522.109375 733.539062 521.957031 C 733.589844 521.800781 733.613281 521.640625 733.664062 521.484375 C 733.71875 521.332031 733.820312 521.195312 733.867188 521.042969 C 733.914062 520.886719 733.90625 520.710938 733.953125 520.566406 C 734 520.417969 734.09375 520.269531 734.148438 520.113281 C 734.203125 519.960938 734.148438 519.785156 734.234375 519.628906 C 734.324219 519.476562 734.410156 519.347656 734.457031 519.191406 C 734.503906 519.039062 734.523438 518.875 734.578125 518.722656 C 734.632812 518.566406 734.578125 518.394531 734.660156 518.238281 C 734.738281 518.082031 734.800781 517.941406 734.847656 517.789062 C 734.894531 517.632812 734.96875 517.492188 735.015625 517.335938 C 735.0625 517.183594 735.070312 517.015625 735.117188 516.859375 C 735.164062 516.703125 735.289062 516.570312 735.335938 516.414062 C 735.382812 516.261719 735.445312 516.113281 735.492188 515.957031 C 735.539062 515.804688 735.492188 515.609375 735.492188 515.453125 C 735.492188 515.300781 735.691406 515.179688 735.742188 515.023438 C 735.789062 514.867188 735.742188 514.679688 735.742188 514.527344 C 735.742188 514.371094 735.875 514.230469 735.921875 514.074219 C 735.96875 513.921875 736.070312 513.78125 736.117188 513.625 C 736.164062 513.46875 736.117188 513.296875 736.183594 513.140625 C 736.25 512.984375 736.269531 512.832031 736.316406 512.675781 C 736.363281 512.523438 736.433594 512.367188 736.472656 512.214844 C 736.511719 512.058594 736.472656 511.882812 736.539062 511.730469 C 736.605469 511.566406 736.585938 511.414062 736.484375 511.273438 C 736.398438 511.125 736.304688 510.949219 736.128906 510.902344 C 735.945312 510.851562 735.761719 510.863281 735.585938 510.933594 C 735.449219 511.0625 735.378906 511.21875 735.371094 511.40625 Z M 735.371094 511.394531 " fill-opacity="1" fill-rule="nonzero"/><path fill="#f7a500" d="M 745.585938 329.0625 C 745.542969 329.214844 745.585938 329.390625 745.503906 329.546875 C 745.421875 329.699219 745.390625 329.855469 745.34375 330.011719 C 745.296875 330.164062 745.25 330.324219 745.1875 330.480469 C 745.128906 330.636719 745.015625 330.761719 744.953125 330.917969 C 744.894531 331.074219 744.886719 331.242188 744.824219 331.394531 C 744.765625 331.550781 744.671875 331.683594 744.597656 331.832031 C 744.523438 331.980469 744.53125 332.160156 744.457031 332.308594 C 744.382812 332.457031 744.234375 332.566406 744.160156 332.707031 C 744.085938 332.847656 744.054688 333.023438 743.972656 333.164062 C 743.890625 333.304688 743.777344 333.433594 743.691406 333.574219 C 743.605469 333.714844 743.535156 333.863281 743.441406 333.996094 C 743.347656 334.132812 743.289062 334.285156 743.195312 334.421875 C 743.101562 334.554688 742.964844 334.664062 742.871094 334.796875 C 742.777344 334.933594 742.71875 335.09375 742.617188 335.222656 C 742.515625 335.347656 742.386719 335.457031 742.28125 335.585938 C 742.171875 335.710938 742.039062 335.804688 741.933594 335.933594 C 741.824219 336.0625 741.722656 336.183594 741.609375 336.304688 C 741.496094 336.425781 741.402344 336.558594 741.285156 336.675781 C 741.171875 336.789062 741.039062 336.890625 740.925781 337.003906 C 740.808594 337.117188 740.714844 337.265625 740.59375 337.375 C 740.4375 337.484375 740.265625 337.523438 740.078125 337.488281 C 739.898438 337.480469 739.746094 337.414062 739.621094 337.285156 C 739.46875 337.175781 739.371094 337.027344 739.332031 336.84375 C 739.332031 336.636719 739.40625 336.464844 739.5625 336.332031 L 739.917969 336.015625 C 740.039062 335.902344 740.191406 335.832031 740.304688 335.71875 C 740.421875 335.605469 740.519531 335.484375 740.628906 335.371094 C 740.738281 335.253906 740.824219 335.113281 740.929688 334.992188 C 741.039062 334.871094 741.199219 334.796875 741.300781 334.675781 C 741.402344 334.554688 741.453125 334.394531 741.554688 334.265625 C 741.65625 334.140625 741.703125 333.976562 741.796875 333.851562 L 742.078125 333.460938 C 742.167969 333.324219 742.339844 333.25 742.429688 333.117188 C 742.515625 332.980469 742.554688 332.8125 742.636719 332.679688 C 742.71875 332.546875 742.777344 332.390625 742.851562 332.25 C 742.925781 332.109375 743.054688 331.992188 743.128906 331.851562 C 743.199219 331.710938 743.242188 331.550781 743.308594 331.410156 C 743.375 331.265625 743.484375 331.132812 743.542969 330.984375 C 743.605469 330.835938 743.710938 330.710938 743.773438 330.554688 C 743.832031 330.398438 743.867188 330.253906 743.917969 330.097656 C 743.972656 329.941406 744.039062 329.800781 744.09375 329.648438 C 744.148438 329.492188 744.195312 329.34375 744.242188 329.191406 C 744.289062 329.035156 744.28125 328.867188 744.320312 328.710938 C 744.367188 328.539062 744.476562 328.417969 744.644531 328.355469 C 744.792969 328.246094 744.957031 328.199219 745.140625 328.214844 C 745.320312 328.277344 745.453125 328.390625 745.542969 328.558594 C 745.636719 328.71875 745.648438 328.886719 745.585938 329.0625 Z M 693.597656 351.207031 C 693.46875 351.105469 693.3125 351.042969 693.1875 350.9375 L 692.824219 350.613281 L 692.453125 350.3125 C 692.332031 350.203125 692.253906 350.042969 692.132812 349.933594 C 692.011719 349.828125 691.851562 349.765625 691.734375 349.660156 C 691.621094 349.550781 691.515625 349.421875 691.394531 349.316406 C 691.273438 349.207031 691.105469 349.148438 690.992188 349.039062 C 690.875 348.933594 690.808594 348.757812 690.695312 348.644531 C 690.582031 348.527344 690.425781 348.460938 690.3125 348.347656 C 690.199219 348.234375 690.105469 348.097656 689.988281 347.984375 L 689.640625 347.648438 C 689.527344 347.535156 689.398438 347.433594 689.285156 347.320312 C 689.171875 347.203125 689.097656 347.050781 688.988281 346.933594 C 688.882812 346.820312 688.726562 346.734375 688.621094 346.613281 C 688.511719 346.492188 688.425781 346.351562 688.316406 346.230469 C 688.210938 346.109375 688.136719 345.960938 688.027344 345.839844 C 687.921875 345.71875 687.8125 345.605469 687.707031 345.484375 C 687.597656 345.363281 687.484375 345.246094 687.378906 345.125 C 687.269531 345.003906 687.183594 344.863281 687.082031 344.742188 C 686.980469 344.621094 686.839844 344.519531 686.738281 344.394531 C 686.640625 344.265625 686.605469 344.089844 686.503906 343.964844 L 686.210938 343.585938 C 686.113281 343.453125 685.960938 343.371094 685.859375 343.238281 C 685.757812 343.101562 685.660156 342.988281 685.566406 342.855469 C 685.46875 342.71875 685.390625 342.585938 685.296875 342.457031 C 685.203125 342.328125 685.15625 342.15625 685.066406 342.027344 L 684.777344 341.628906 C 684.691406 341.503906 684.578125 341.382812 684.484375 341.246094 C 684.390625 341.113281 684.375 340.9375 684.289062 340.800781 C 684.203125 340.667969 684.066406 340.5625 683.980469 340.417969 C 683.890625 340.277344 683.765625 340.175781 683.675781 340.042969 L 683.429688 339.625 C 683.34375 339.484375 683.347656 339.296875 683.269531 339.15625 C 683.1875 339.015625 683.058594 338.90625 682.980469 338.765625 C 682.898438 338.625 682.804688 338.496094 682.722656 338.355469 C 682.644531 338.214844 682.617188 338.046875 682.535156 337.90625 C 682.457031 337.761719 682.355469 337.636719 682.28125 337.496094 C 682.207031 337.351562 682.160156 337.191406 682.085938 337.042969 C 682.011719 336.894531 681.980469 336.742188 681.90625 336.601562 C 681.832031 336.457031 681.742188 336.316406 681.667969 336.175781 C 681.597656 336.035156 681.542969 335.878906 681.46875 335.734375 C 681.394531 335.585938 681.339844 335.4375 681.273438 335.296875 C 681.179688 335.121094 681.039062 335.011719 680.84375 334.972656 C 680.65625 334.929688 680.476562 334.953125 680.304688 335.039062 C 680.164062 335.132812 680.125 335.335938 680.070312 335.503906 C 680 335.667969 680 335.832031 680.070312 335.996094 C 680.140625 336.144531 680.144531 336.316406 680.21875 336.457031 C 680.292969 336.601562 680.359375 336.746094 680.425781 336.894531 C 680.496094 337.042969 680.675781 337.132812 680.742188 337.273438 C 680.808594 337.414062 680.824219 337.59375 680.898438 337.738281 C 680.972656 337.878906 681.105469 337.984375 681.1875 338.125 C 681.265625 338.269531 681.335938 338.410156 681.414062 338.550781 C 681.496094 338.691406 681.480469 338.871094 681.5625 339.015625 C 681.644531 339.15625 681.785156 339.257812 681.863281 339.398438 C 681.945312 339.539062 681.9375 339.726562 682.019531 339.859375 C 682.097656 339.996094 682.21875 340.117188 682.308594 340.25 C 682.394531 340.386719 682.433594 340.546875 682.523438 340.6875 C 682.609375 340.828125 682.765625 340.910156 682.851562 341.042969 C 682.9375 341.179688 682.953125 341.359375 683.039062 341.496094 L 683.300781 341.898438 C 683.394531 342.035156 683.503906 342.148438 683.597656 342.28125 C 683.691406 342.417969 683.757812 342.558594 683.84375 342.691406 C 683.933594 342.828125 684.09375 342.90625 684.1875 343.042969 C 684.28125 343.175781 684.34375 343.324219 684.4375 343.453125 C 684.53125 343.578125 684.652344 343.6875 684.746094 343.820312 C 684.839844 343.957031 684.867188 344.132812 684.960938 344.257812 C 685.054688 344.386719 685.167969 344.507812 685.261719 344.636719 L 685.566406 345.003906 C 685.664062 345.132812 685.773438 345.253906 685.867188 345.382812 C 685.960938 345.507812 686.042969 345.65625 686.140625 345.777344 L 686.445312 346.15625 C 686.546875 346.277344 686.660156 346.390625 686.765625 346.511719 C 686.875 346.632812 687.035156 346.707031 687.136719 346.828125 C 687.238281 346.949219 687.285156 347.125 687.390625 347.246094 C 687.5 347.367188 687.6875 347.40625 687.792969 347.527344 L 688.117188 347.882812 C 688.222656 347.996094 688.351562 348.105469 688.457031 348.21875 C 688.566406 348.335938 688.660156 348.46875 688.773438 348.582031 C 688.886719 348.695312 688.941406 348.863281 689.054688 348.980469 C 689.171875 349.09375 689.324219 349.160156 689.4375 349.277344 C 689.554688 349.390625 689.648438 349.515625 689.769531 349.632812 C 689.890625 349.746094 690.042969 349.800781 690.15625 349.914062 C 690.273438 350.027344 690.304688 350.222656 690.417969 350.332031 C 690.535156 350.4375 690.667969 350.546875 690.78125 350.652344 C 690.894531 350.761719 691.085938 350.796875 691.207031 350.894531 L 691.574219 351.210938 C 691.695312 351.3125 691.761719 351.480469 691.882812 351.589844 C 692.003906 351.695312 692.144531 351.769531 692.273438 351.871094 C 692.402344 351.972656 692.480469 352.121094 692.609375 352.21875 C 692.773438 352.308594 692.945312 352.335938 693.125 352.292969 C 693.300781 352.292969 693.515625 352.292969 693.636719 352.179688 C 693.75 352.03125 693.796875 351.863281 693.769531 351.675781 C 693.792969 351.488281 693.734375 351.332031 693.597656 351.207031 Z M 681.9375 306.980469 C 681.945312 306.816406 681.933594 306.65625 681.898438 306.496094 C 681.886719 306.332031 681.863281 306.171875 681.832031 306.011719 C 681.796875 305.863281 681.742188 305.707031 681.691406 305.546875 C 681.636719 305.386719 681.648438 305.222656 681.589844 305.0625 C 681.527344 304.902344 681.414062 304.785156 681.347656 304.632812 C 681.28125 304.476562 681.234375 304.328125 681.160156 304.183594 C 681.085938 304.035156 680.953125 303.925781 680.878906 303.785156 C 680.804688 303.644531 680.789062 303.457031 680.710938 303.316406 C 680.628906 303.171875 680.496094 303.066406 680.40625 302.925781 C 680.320312 302.785156 680.257812 302.628906 680.171875 302.492188 C 680.085938 302.359375 679.976562 302.230469 679.882812 302.097656 C 679.789062 301.960938 679.667969 301.847656 679.574219 301.722656 C 679.480469 301.59375 679.40625 301.433594 679.304688 301.3125 C 679.207031 301.191406 679.042969 301.09375 678.9375 300.980469 C 678.828125 300.867188 678.722656 300.71875 678.609375 300.617188 C 678.496094 300.5 678.375 300.394531 678.246094 300.296875 C 678.105469 300.203125 677.953125 300.144531 677.789062 300.121094 C 677.613281 300.105469 677.480469 300.171875 677.390625 300.320312 C 677.300781 300.460938 677.25 300.609375 677.238281 300.773438 C 677.222656 300.921875 677.222656 301.074219 677.238281 301.222656 C 677.359375 301.316406 677.472656 301.417969 677.582031 301.527344 C 677.714844 301.621094 677.847656 301.714844 677.96875 301.816406 C 678.113281 301.898438 678.246094 301.992188 678.378906 302.089844 C 678.492188 302.203125 678.613281 302.320312 678.714844 302.441406 C 678.816406 302.5625 678.917969 302.703125 679.011719 302.835938 C 679.105469 302.972656 679.144531 303.140625 679.226562 303.273438 C 679.304688 303.410156 679.398438 303.542969 679.480469 303.691406 C 679.5625 303.839844 679.65625 303.964844 679.722656 304.113281 C 679.789062 304.261719 679.777344 304.4375 679.835938 304.59375 C 679.898438 304.746094 680.003906 304.875 680.058594 305.023438 C 680.113281 305.171875 680.210938 305.316406 680.257812 305.472656 C 680.304688 305.628906 680.347656 305.78125 680.394531 305.945312 C 680.441406 306.105469 680.394531 306.28125 680.394531 306.441406 C 680.394531 306.601562 680.519531 306.742188 680.554688 306.898438 C 680.589844 307.054688 680.640625 307.214844 680.667969 307.371094 C 680.695312 307.523438 680.667969 307.699219 680.703125 307.859375 C 680.738281 308.023438 680.75 308.183594 680.757812 308.34375 C 680.761719 308.503906 680.757812 308.671875 680.757812 308.835938 C 680.757812 308.996094 680.757812 309.164062 680.757812 309.324219 C 680.757812 309.488281 680.789062 309.648438 680.804688 309.808594 C 680.816406 309.972656 680.804688 310.140625 680.804688 310.292969 C 680.804688 310.449219 680.804688 310.625 680.804688 310.785156 C 680.804688 310.945312 680.878906 311.109375 680.890625 311.261719 C 680.902344 311.417969 680.890625 311.597656 680.890625 311.753906 C 680.890625 311.90625 681.023438 312.070312 681.039062 312.230469 C 681.050781 312.390625 681.039062 312.558594 681.039062 312.722656 C 681.039062 312.882812 681.003906 313.058594 681.039062 313.210938 C 681.070312 313.367188 681.078125 313.542969 681.097656 313.695312 C 681.117188 313.851562 681.253906 314.011719 681.273438 314.167969 C 681.292969 314.320312 681.273438 314.503906 681.273438 314.660156 C 681.273438 314.8125 681.402344 314.972656 681.429688 315.121094 C 681.453125 315.269531 681.488281 315.453125 681.523438 315.601562 C 681.554688 315.746094 681.523438 315.949219 681.523438 316.097656 C 681.585938 316.25 681.65625 316.398438 681.738281 316.542969 C 681.804688 316.730469 681.785156 316.925781 681.851562 317.027344 C 681.984375 317.242188 682.179688 317.242188 682.289062 317.09375 C 682.398438 316.964844 682.46875 316.820312 682.507812 316.65625 C 682.542969 316.519531 682.507812 316.347656 682.507812 316.15625 C 682.507812 315.96875 682.628906 315.867188 682.644531 315.695312 C 682.65625 315.519531 682.644531 315.378906 682.644531 315.210938 C 682.644531 315.042969 682.644531 314.894531 682.644531 314.726562 C 682.644531 314.558594 682.644531 314.410156 682.644531 314.242188 C 682.644531 314.074219 682.609375 313.917969 682.609375 313.75 C 682.609375 313.582031 682.609375 313.429688 682.609375 313.265625 C 682.609375 313.105469 682.554688 312.945312 682.542969 312.78125 C 682.53125 312.621094 682.617188 312.460938 682.609375 312.292969 C 682.601562 312.125 682.570312 311.976562 682.554688 311.808594 C 682.542969 311.640625 682.523438 311.492188 682.507812 311.324219 C 682.496094 311.15625 682.46875 311.007812 682.457031 310.839844 C 682.441406 310.671875 682.457031 310.515625 682.457031 310.347656 C 682.457031 310.179688 682.457031 310.03125 682.410156 309.871094 C 682.363281 309.710938 682.355469 309.554688 682.335938 309.386719 C 682.3125 309.21875 682.214844 309.078125 682.195312 308.914062 C 682.171875 308.753906 682.234375 308.578125 682.195312 308.417969 C 682.152344 308.257812 682.039062 308.117188 682.011719 307.953125 C 681.984375 307.792969 681.964844 307.632812 681.9375 307.46875 C 681.910156 307.308594 681.992188 307.140625 681.9375 306.980469 Z M 753.953125 306.859375 C 753.882812 306.707031 753.824219 306.550781 753.769531 306.394531 C 753.769531 306.246094 753.722656 306.078125 753.691406 305.910156 C 753.65625 305.742188 753.621094 305.59375 753.601562 305.425781 C 753.582031 305.257812 753.601562 305.101562 753.601562 304.933594 C 753.601562 304.765625 753.496094 304.617188 753.476562 304.449219 C 753.453125 304.28125 753.476562 304.128906 753.476562 303.960938 C 753.476562 303.792969 753.367188 303.644531 753.347656 303.484375 C 753.328125 303.320312 753.394531 303.144531 753.347656 302.984375 C 753.300781 302.824219 753.261719 302.667969 753.246094 302.5 C 753.234375 302.332031 753.246094 302.179688 753.246094 302.011719 C 753.246094 301.84375 753.199219 301.6875 753.1875 301.527344 C 753.171875 301.363281 753.125 301.203125 753.113281 301.042969 C 753.097656 300.878906 753.113281 300.707031 753.113281 300.542969 C 753.113281 300.382812 753.019531 300.222656 753 300.058594 C 752.976562 299.898438 753 299.722656 753 299.5625 C 753 299.402344 753 299.234375 753 299.070312 C 753 298.910156 752.945312 298.742188 752.925781 298.582031 C 752.902344 298.417969 752.855469 298.257812 752.835938 298.097656 C 752.816406 297.933594 752.804688 297.765625 752.777344 297.605469 C 752.75 297.445312 752.675781 297.289062 752.648438 297.128906 C 752.621094 296.964844 752.648438 296.785156 752.648438 296.628906 C 752.648438 296.476562 752.582031 296.300781 752.546875 296.144531 C 752.515625 295.992188 752.40625 295.835938 752.367188 295.683594 C 752.328125 295.527344 752.265625 295.367188 752.21875 295.210938 C 752.179688 295.054688 752.128906 294.898438 752.070312 294.746094 C 752.011719 294.585938 751.996094 294.410156 751.929688 294.277344 C 751.851562 294.132812 751.757812 294 751.65625 293.875 C 751.550781 293.746094 751.425781 293.648438 751.277344 293.578125 C 751.144531 293.46875 750.988281 293.410156 750.816406 293.402344 C 750.65625 293.445312 750.507812 293.511719 750.371094 293.609375 C 750.414062 293.773438 750.5 293.90625 750.539062 294.0625 C 750.582031 294.214844 750.609375 294.378906 750.648438 294.53125 C 750.6875 294.6875 750.613281 294.875 750.648438 295.03125 C 750.679688 295.183594 750.769531 295.332031 750.800781 295.492188 C 750.835938 295.65625 750.894531 295.804688 750.929688 295.957031 C 750.964844 296.113281 750.929688 296.289062 750.976562 296.449219 C 751.023438 296.609375 751.078125 296.75 751.109375 296.914062 C 751.144531 297.074219 751.109375 297.234375 751.164062 297.398438 C 751.21875 297.558594 751.164062 297.71875 751.21875 297.882812 C 751.273438 298.042969 751.304688 298.191406 751.332031 298.351562 C 751.359375 298.511719 751.386719 298.667969 751.414062 298.828125 C 751.441406 298.992188 751.46875 299.144531 751.492188 299.308594 C 751.519531 299.46875 751.601562 299.617188 751.628906 299.777344 C 751.65625 299.9375 751.628906 300.101562 751.667969 300.261719 C 751.707031 300.421875 751.828125 300.5625 751.855469 300.726562 C 751.882812 300.886719 751.855469 301.046875 751.855469 301.210938 C 751.855469 301.371094 751.855469 301.539062 751.855469 301.699219 C 751.855469 301.863281 751.902344 302.015625 751.929688 302.179688 C 751.957031 302.339844 752.089844 302.480469 752.113281 302.640625 C 752.132812 302.804688 752.113281 302.972656 752.113281 303.132812 C 752.113281 303.292969 752.226562 303.441406 752.246094 303.605469 C 752.265625 303.765625 752.292969 303.925781 752.3125 304.085938 C 752.332031 304.25 752.265625 304.417969 752.3125 304.578125 C 752.359375 304.738281 752.425781 304.894531 752.449219 305.054688 C 752.46875 305.21875 752.386719 305.386719 752.40625 305.546875 C 752.425781 305.707031 752.488281 305.863281 752.5 306.023438 C 752.515625 306.1875 752.5 306.355469 752.5 306.515625 C 752.5 306.675781 752.621094 306.832031 752.640625 306.992188 C 752.664062 307.152344 752.589844 307.320312 752.601562 307.484375 C 752.617188 307.644531 752.601562 307.804688 752.648438 307.96875 C 752.695312 308.128906 752.703125 308.285156 752.714844 308.453125 C 752.730469 308.621094 752.714844 308.773438 752.714844 308.9375 C 752.714844 309.097656 752.824219 309.253906 752.832031 309.414062 C 752.835938 309.574219 752.832031 309.742188 752.832031 309.90625 C 752.832031 310.066406 752.882812 310.226562 752.890625 310.386719 C 752.898438 310.550781 752.816406 310.71875 752.824219 310.878906 C 752.832031 311.039062 752.824219 311.203125 752.855469 311.363281 C 752.890625 311.523438 752.855469 311.6875 752.855469 311.847656 C 752.855469 312.007812 752.855469 312.175781 752.855469 312.339844 C 752.855469 312.5 752.824219 312.660156 752.855469 312.824219 C 752.890625 312.984375 752.855469 313.144531 752.855469 313.308594 C 752.855469 313.46875 752.855469 313.636719 752.855469 313.796875 C 752.855469 313.960938 752.9375 314.121094 752.929688 314.28125 C 752.925781 314.441406 752.84375 314.605469 752.835938 314.765625 C 752.832031 314.925781 752.945312 315.09375 752.9375 315.257812 L 752.9375 315.746094 C 752.9375 315.910156 752.9375 316.070312 752.9375 316.230469 C 752.9375 316.394531 752.898438 316.554688 752.890625 316.714844 C 752.882812 316.878906 752.796875 317.039062 752.785156 317.199219 C 752.769531 317.363281 752.824219 317.53125 752.785156 317.691406 C 752.742188 317.851562 752.738281 318.015625 752.722656 318.175781 C 752.710938 318.335938 752.761719 318.503906 752.722656 318.667969 C 752.683594 318.828125 752.570312 318.976562 752.546875 319.136719 C 752.527344 319.296875 752.546875 319.460938 752.507812 319.621094 C 752.46875 319.78125 752.570312 319.957031 752.554688 320.117188 C 752.542969 320.28125 752.519531 320.441406 752.5 320.601562 C 752.480469 320.765625 752.375 320.910156 752.355469 321.074219 C 752.332031 321.234375 752.355469 321.394531 752.3125 321.558594 C 752.273438 321.71875 752.207031 321.867188 752.179688 322.027344 C 752.152344 322.191406 752.226562 322.363281 752.179688 322.527344 C 752.132812 322.6875 752.011719 322.828125 751.984375 322.984375 C 751.957031 323.136719 752.039062 323.324219 751.984375 323.488281 C 751.929688 323.648438 751.855469 323.789062 751.824219 323.953125 C 751.789062 324.113281 751.769531 324.265625 751.730469 324.429688 C 751.6875 324.589844 751.730469 324.75 751.667969 324.914062 C 751.609375 325.074219 751.574219 325.222656 751.535156 325.382812 C 751.492188 325.546875 751.460938 325.691406 751.421875 325.855469 C 751.378906 326.015625 751.273438 326.148438 751.226562 326.304688 C 751.179688 326.460938 751.152344 326.621094 751.105469 326.777344 C 751.058594 326.929688 750.996094 327.085938 750.949219 327.238281 C 750.902344 327.394531 750.949219 327.582031 750.910156 327.738281 C 750.871094 327.890625 750.6875 328.007812 750.640625 328.160156 C 750.59375 328.316406 750.609375 328.492188 750.554688 328.644531 C 750.5 328.800781 750.371094 328.921875 750.320312 329.074219 C 750.265625 329.230469 750.320312 329.417969 750.246094 329.566406 C 750.171875 329.714844 750.058594 329.84375 749.996094 329.988281 C 749.9375 330.136719 749.914062 330.3125 749.855469 330.460938 C 749.796875 330.609375 749.769531 330.777344 749.707031 330.925781 C 749.648438 331.074219 749.480469 331.179688 749.414062 331.328125 C 749.34375 331.476562 749.3125 331.636719 749.238281 331.785156 C 749.164062 331.933594 749.097656 332.074219 749.023438 332.214844 C 748.949219 332.355469 748.886719 332.511719 748.816406 332.652344 C 748.742188 332.792969 748.699219 332.960938 748.625 333.109375 C 748.554688 333.257812 748.398438 333.351562 748.316406 333.492188 C 748.238281 333.632812 748.171875 333.78125 748.089844 333.921875 C 748.007812 334.066406 747.949219 334.210938 747.859375 334.355469 C 747.773438 334.496094 747.652344 334.601562 747.566406 334.738281 C 747.476562 334.871094 747.492188 335.082031 747.40625 335.214844 C 747.316406 335.347656 747.175781 335.449219 747.089844 335.585938 C 747 335.71875 746.867188 335.828125 746.773438 335.960938 C 746.679688 336.09375 746.578125 336.214844 746.484375 336.351562 C 746.390625 336.484375 746.324219 336.632812 746.222656 336.761719 C 746.121094 336.890625 746.019531 337.011719 745.925781 337.136719 C 745.832031 337.265625 745.800781 337.453125 745.691406 337.582031 C 745.585938 337.710938 745.464844 337.804688 745.355469 337.929688 C 745.25 338.058594 745.113281 338.148438 745.007812 338.269531 C 744.898438 338.386719 744.847656 338.558594 744.730469 338.679688 C 744.617188 338.800781 744.449219 338.851562 744.335938 338.972656 C 744.222656 339.09375 744.175781 339.261719 744.066406 339.382812 C 743.960938 339.503906 743.851562 339.632812 743.738281 339.746094 C 743.625 339.859375 743.441406 339.902344 743.320312 340.015625 C 743.199219 340.128906 743.121094 340.265625 743 340.378906 C 742.878906 340.492188 742.804688 340.648438 742.683594 340.753906 C 742.5625 340.863281 742.386719 340.902344 742.265625 341.011719 C 742.148438 341.117188 742.074219 341.292969 741.953125 341.394531 C 741.832031 341.496094 741.683594 341.582031 741.554688 341.683594 C 741.429688 341.785156 741.285156 341.859375 741.160156 341.960938 C 741.03125 342.058594 740.898438 342.15625 740.761719 342.25 C 740.628906 342.34375 740.496094 342.429688 740.367188 342.53125 C 740.238281 342.632812 740.144531 342.738281 740.011719 342.832031 C 740.171875 342.832031 740.3125 342.878906 740.472656 342.832031 C 740.636719 342.785156 740.785156 342.707031 740.945312 342.679688 C 741.105469 342.652344 741.273438 342.679688 741.433594 342.679688 C 741.597656 342.679688 741.738281 342.558594 741.890625 342.511719 C 742.046875 342.464844 742.214844 342.457031 742.363281 342.394531 C 742.507812 342.335938 742.636719 342.214844 742.785156 342.148438 C 742.933594 342.082031 743.066406 341.992188 743.214844 341.917969 C 743.363281 341.84375 743.535156 341.839844 743.671875 341.75 C 743.804688 341.664062 743.890625 341.496094 744.027344 341.40625 C 744.160156 341.320312 744.296875 341.234375 744.421875 341.132812 C 744.550781 341.03125 744.65625 340.910156 744.785156 340.808594 L 745.15625 340.5 C 745.269531 340.390625 745.410156 340.304688 745.523438 340.191406 C 745.636719 340.078125 745.820312 340.03125 745.933594 339.914062 C 746.046875 339.800781 746.066406 339.597656 746.175781 339.476562 C 746.28125 339.355469 746.402344 339.257812 746.511719 339.128906 C 746.617188 339 746.699219 338.871094 746.800781 338.746094 C 746.902344 338.617188 747.054688 338.535156 747.15625 338.410156 C 747.257812 338.28125 747.371094 338.167969 747.464844 338.03125 C 747.558594 337.898438 747.644531 337.761719 747.734375 337.628906 C 747.820312 337.496094 747.882812 337.339844 747.96875 337.207031 C 748.054688 337.070312 748.15625 336.949219 748.242188 336.808594 C 748.332031 336.667969 748.34375 336.5 748.425781 336.359375 C 748.503906 336.214844 748.699219 336.148438 748.773438 336.007812 C 748.847656 335.867188 748.839844 335.679688 748.921875 335.53125 C 749.003906 335.382812 749.117188 335.273438 749.199219 335.132812 C 749.277344 334.992188 749.324219 334.839844 749.398438 334.695312 C 749.472656 334.554688 749.527344 334.402344 749.59375 334.253906 C 749.660156 334.105469 749.78125 333.992188 749.855469 333.84375 L 750.050781 333.398438 C 750.109375 333.25 750.171875 333.101562 750.238281 332.957031 C 750.304688 332.808594 750.324219 332.640625 750.386719 332.492188 C 750.445312 332.34375 750.527344 332.203125 750.585938 332.054688 C 750.648438 331.90625 750.6875 331.746094 750.742188 331.597656 C 750.796875 331.449219 750.871094 331.292969 750.921875 331.148438 C 750.976562 331 751.03125 330.84375 751.089844 330.6875 C 751.152344 330.535156 751.230469 330.398438 751.285156 330.253906 C 751.339844 330.105469 751.460938 329.96875 751.507812 329.816406 C 751.554688 329.660156 751.507812 329.480469 751.582031 329.332031 C 751.65625 329.183594 751.683594 329.023438 751.734375 328.867188 C 751.789062 328.710938 751.851562 328.570312 751.898438 328.417969 C 751.945312 328.261719 751.957031 328.09375 752.003906 327.9375 C 752.050781 327.785156 752.097656 327.636719 752.144531 327.480469 C 752.191406 327.328125 752.265625 327.179688 752.304688 327.023438 C 752.347656 326.871094 752.347656 326.703125 752.386719 326.539062 C 752.425781 326.378906 752.582031 326.257812 752.621094 326.101562 C 752.664062 325.949219 752.675781 325.78125 752.714844 325.625 C 752.757812 325.472656 752.789062 325.308594 752.824219 325.15625 C 752.855469 325 752.910156 324.839844 752.945312 324.683594 C 752.976562 324.53125 752.910156 324.339844 752.945312 324.1875 C 752.976562 324.03125 753.03125 323.878906 753.066406 323.714844 C 753.097656 323.554688 753.160156 323.40625 753.191406 323.246094 C 753.226562 323.085938 753.246094 322.929688 753.273438 322.769531 C 753.300781 322.605469 753.394531 322.464844 753.429688 322.304688 C 753.460938 322.144531 753.5 321.988281 753.527344 321.828125 C 753.554688 321.664062 753.527344 321.503906 753.582031 321.34375 C 753.636719 321.179688 753.582031 321.019531 753.617188 320.859375 C 753.648438 320.695312 753.617188 320.535156 753.664062 320.375 C 753.710938 320.210938 753.730469 320.058594 753.75 319.898438 C 753.769531 319.734375 753.8125 319.574219 753.832031 319.417969 C 753.851562 319.265625 753.964844 319.101562 753.984375 318.949219 C 754.003906 318.792969 753.984375 318.617188 753.984375 318.457031 C 753.984375 318.296875 753.984375 318.128906 753.984375 317.96875 C 753.984375 317.804688 754.097656 317.652344 754.121094 317.496094 C 754.140625 317.339844 754.050781 317.160156 754.066406 317 C 754.078125 316.835938 754.195312 316.683594 754.207031 316.519531 C 754.21875 316.359375 754.140625 316.191406 754.152344 316.03125 C 754.167969 315.867188 754.253906 315.707031 754.261719 315.546875 C 754.265625 315.382812 754.199219 315.214844 754.207031 315.054688 C 754.214844 314.894531 754.273438 314.730469 754.28125 314.570312 C 754.289062 314.410156 754.28125 314.25 754.28125 314.085938 C 754.28125 313.925781 754.320312 313.765625 754.320312 313.601562 C 754.320312 313.441406 754.265625 313.273438 754.265625 313.113281 C 754.265625 312.949219 754.328125 312.789062 754.328125 312.628906 C 754.328125 312.464844 754.328125 312.304688 754.328125 312.144531 C 754.328125 311.980469 754.328125 311.820312 754.328125 311.660156 C 754.328125 311.496094 754.253906 311.335938 754.253906 311.175781 C 754.253906 311.015625 754.292969 310.851562 754.289062 310.691406 C 754.28125 310.53125 754.289062 310.363281 754.289062 310.199219 C 754.289062 310.039062 754.207031 309.882812 754.195312 309.722656 C 754.179688 309.5625 754.152344 309.398438 754.140625 309.238281 C 754.125 309.078125 754.199219 308.910156 754.1875 308.753906 C 754.171875 308.601562 754.121094 308.433594 754.097656 308.277344 C 754.078125 308.121094 754.019531 307.960938 754 307.800781 C 753.980469 307.636719 754 307.484375 753.945312 307.320312 C 753.890625 307.160156 754.003906 307.011719 753.980469 306.859375 Z M 753.953125 306.859375 " fill-opacity="1" fill-rule="nonzero"/></svg>