<svg xmlns="http://www.w3.org/2000/svg" xmlns:xlink="http://www.w3.org/1999/xlink" width="1920" zoomAndPan="magnify" viewBox="0 0 1440 809.999993" height="1080" preserveAspectRatio="xMidYMid meet" version="1.0"><defs><clipPath id="ef5eafb017"><path d="M 576 207.089844 L 633 207.089844 L 633 302 L 576 302 Z M 576 207.089844 " clip-rule="nonzero"/></clipPath><clipPath id="0ca9c96a1d"><path d="M 752 64.101562 L 808 64.101562 L 808 159 L 752 159 Z M 752 64.101562 " clip-rule="nonzero"/></clipPath><clipPath id="9c8bfc4387"><path d="M 401 364.953125 L 457 364.953125 L 457 460 L 401 460 Z M 401 364.953125 " clip-rule="nonzero"/></clipPath><clipPath id="1e3f03c08f"><path d="M 752 333.179688 L 808 333.179688 L 808 428 L 752 428 Z M 752 333.179688 " clip-rule="nonzero"/></clipPath><clipPath id="9caf359cca"><path d="M 576 514.394531 L 633 514.394531 L 633 609 L 576 609 Z M 576 514.394531 " clip-rule="nonzero"/></clipPath></defs><path fill="#7ac2e2" d="M 422.210938 94.777344 C 419.238281 101.78125 412.890625 114.957031 409.296875 121.65625 C 401.941406 135.324219 396.4375 153.421875 407.894531 166.574219 C 416.203125 176.109375 432.363281 178.195312 443.53125 171.980469 C 456.71875 164.632812 458.671875 148.75 454.484375 135.457031 C 451.207031 125.054688 445 115.855469 440.1875 106.058594 C 438.074219 101.738281 437 98.800781 434.925781 94.460938 C 433.292969 91.039062 430.410156 84.660156 427.769531 81.011719 C 426.835938 82.796875 424.183594 90.085938 422.210938 94.777344 Z M 422.210938 94.777344 " fill-opacity="1" fill-rule="nonzero"/><path stroke-linecap="round" transform="matrix(1.096235, 0, 0, 1.096129, 252.206302, -27.735945)" fill="none" stroke-linejoin="round" d="M 174.529192 182.190905 C 186.559007 175.49119 188.340674 161.001276 184.52078 148.870516 C 181.531143 139.380442 175.869006 130.991544 171.478978 122.050276 " stroke="#335894" stroke-width="1.5" stroke-opacity="1" stroke-miterlimit="10"/><path stroke-linecap="round" transform="matrix(1.096235, 0, 0, 1.096129, 252.206302, -27.735945)" fill="none" stroke-linejoin="round" d="M 153.341609 177.148301 C 149.350675 175.031476 146.118732 171.528381 144.308558 167.401641 C 142.498384 163.260648 142.131361 158.510265 143.289445 154.148323 " stroke="#335894" stroke-width="1.5" stroke-opacity="1" stroke-miterlimit="10"/><path fill="#7ac2e2" d="M 530.792969 125.84375 C 527.472656 133.703125 520.34375 148.476562 516.300781 155.984375 C 508.054688 171.320312 501.875 191.621094 514.734375 206.375 C 524.0625 217.074219 542.183594 219.410156 554.710938 212.4375 C 569.511719 204.203125 571.703125 186.382812 567 171.464844 C 563.328125 159.789062 556.355469 149.476562 550.964844 138.492188 C 548.585938 133.648438 547.390625 130.359375 545.054688 125.492188 C 543.210938 121.65625 539.980469 114.496094 537.019531 110.410156 C 535.988281 112.402344 533.019531 120.59375 530.792969 125.84375 Z M 530.792969 125.84375 " fill-opacity="1" fill-rule="nonzero"/><path stroke-linecap="round" transform="matrix(1.096235, 0, 0, 1.096129, 252.206302, -27.735945)" fill="none" stroke-linejoin="round" d="M 252.181363 213.458615 C 247.709379 211.081642 244.071215 207.161597 242.050805 202.521688 C 240.019704 197.881779 239.609921 192.550517 240.899848 187.65046 " stroke="#335894" stroke-width="1.5" stroke-opacity="1" stroke-miterlimit="10"/><path fill="#7ac2e2" d="M 462.992188 225.042969 C 459.152344 234.117188 450.933594 251.175781 446.261719 259.84375 C 436.746094 277.546875 429.597656 300.972656 444.453125 318.003906 C 455.21875 330.359375 476.144531 333.054688 490.605469 325.007812 C 507.683594 315.503906 510.214844 294.929688 504.789062 277.710938 C 500.546875 264.238281 492.5 252.335938 486.285156 239.652344 C 483.542969 234.0625 482.152344 230.261719 479.464844 224.648438 C 477.351562 220.21875 473.613281 211.964844 470.191406 207.230469 C 468.988281 209.519531 465.554688 218.96875 462.992188 225.042969 Z M 462.992188 225.042969 " fill-opacity="1" fill-rule="nonzero"/><path stroke-linecap="round" transform="matrix(1.096235, 0, 0, 1.096129, 252.206302, -27.735945)" fill="none" stroke-linejoin="round" d="M 217.470928 321.80868 C 233.049823 313.138252 235.358864 294.36836 230.409393 278.659668 C 226.539613 266.368542 219.199145 255.510016 213.529881 243.938753 C 211.02842 238.83913 209.759874 235.371671 207.3083 230.250666 " stroke="#335894" stroke-width="1.5" stroke-opacity="1" stroke-miterlimit="10"/><path stroke-linecap="round" transform="matrix(1.096235, 0, 0, 1.096129, 252.206302, -27.735945)" fill="none" stroke-linejoin="round" d="M 190.019004 315.269331 C 184.859297 312.528863 180.66169 307.999428 178.320579 302.639657 C 175.979469 297.279885 175.498419 291.128977 176.991456 285.480547 " stroke="#335894" stroke-width="1.5" stroke-opacity="1" stroke-miterlimit="10"/><g clip-path="url(#ef5eafb017)"><path fill="#7ac2e2" d="M 597.820312 220.867188 C 594.847656 227.871094 588.5 241.046875 584.90625 247.746094 C 577.550781 261.414062 572.046875 279.511719 583.503906 292.664062 C 591.8125 302.199219 607.96875 304.285156 619.140625 298.070312 C 632.328125 290.722656 634.28125 274.839844 630.09375 261.546875 C 626.8125 251.144531 620.609375 241.945312 615.796875 232.148438 C 613.679688 227.828125 612.605469 224.890625 610.535156 220.550781 C 608.902344 217.128906 606.019531 210.75 603.375 207.101562 C 602.445312 208.886719 599.792969 216.175781 597.820312 220.867188 Z M 597.820312 220.867188 " fill-opacity="1" fill-rule="nonzero"/></g><path stroke-linecap="round" transform="matrix(1.096235, 0, 0, 1.096129, 427.814937, 98.353798)" fill="none" stroke-linejoin="round" d="M 174.529868 182.190996 C 186.559683 175.491282 188.34135 161.001367 184.521456 148.870607 C 181.528255 139.380533 175.869681 130.991635 171.479654 122.050367 " stroke="#335894" stroke-width="1.5" stroke-opacity="1" stroke-miterlimit="10"/><path stroke-linecap="round" transform="matrix(1.096235, 0, 0, 1.096129, 427.814937, 98.353798)" fill="none" stroke-linejoin="round" d="M 153.338722 177.148392 C 149.351351 175.031567 146.119407 171.528472 144.309234 167.401733 C 142.49906 163.260739 142.128473 158.510356 143.29012 154.148414 " stroke="#335894" stroke-width="1.5" stroke-opacity="1" stroke-miterlimit="10"/><path fill="#7ac2e2" d="M 706.402344 251.933594 C 703.078125 259.792969 695.953125 274.566406 691.910156 282.074219 C 683.664062 297.410156 677.480469 317.710938 690.339844 332.464844 C 699.671875 343.164062 717.789062 345.496094 730.320312 338.527344 C 745.121094 330.292969 747.3125 312.472656 742.609375 297.554688 C 738.9375 285.878906 731.964844 275.566406 726.570312 264.582031 C 724.191406 259.738281 722.996094 256.449219 720.664062 251.582031 C 718.820312 247.746094 715.585938 240.585938 712.628906 236.5 C 711.597656 238.492188 708.625 246.683594 706.402344 251.933594 Z M 706.402344 251.933594 " fill-opacity="1" fill-rule="nonzero"/><path stroke-linecap="round" transform="matrix(1.096235, 0, 0, 1.096129, 427.814937, 98.353798)" fill="none" stroke-linejoin="round" d="M 252.178475 213.458707 C 247.710054 211.081734 244.068327 207.161688 242.05148 202.521779 C 240.02038 197.878307 239.610597 192.550608 240.900524 187.650551 " stroke="#335894" stroke-width="1.5" stroke-opacity="1" stroke-miterlimit="10"/><path fill="#7ac2e2" d="M 638.597656 351.132812 C 634.761719 360.207031 626.539062 377.265625 621.871094 385.933594 C 612.355469 403.636719 605.207031 427.0625 620.0625 444.09375 C 630.828125 456.449219 651.753906 459.144531 666.214844 451.097656 C 683.292969 441.59375 685.824219 421.019531 680.398438 403.800781 C 676.15625 390.328125 668.109375 378.425781 661.894531 365.742188 C 659.152344 360.152344 657.761719 356.351562 655.074219 350.738281 C 652.960938 346.308594 649.222656 338.054688 645.800781 333.320312 C 644.59375 335.609375 641.164062 345.058594 638.597656 351.132812 Z M 638.597656 351.132812 " fill-opacity="1" fill-rule="nonzero"/><path stroke-linecap="round" transform="matrix(1.096235, 0, 0, 1.096129, 427.814937, 98.353798)" fill="none" stroke-linejoin="round" d="M 217.471604 321.808772 C 233.050499 313.138343 235.359539 294.368451 230.410069 278.659759 C 226.540288 266.368634 219.199821 255.510107 213.530556 243.938845 C 211.029096 238.839221 209.760549 235.371763 207.308976 230.250757 " stroke="#335894" stroke-width="1.5" stroke-opacity="1" stroke-miterlimit="10"/><path stroke-linecap="round" transform="matrix(1.096235, 0, 0, 1.096129, 427.814937, 98.353798)" fill="none" stroke-linejoin="round" d="M 190.01968 315.269423 C 184.859973 312.528954 180.658802 307.99952 178.321255 302.639748 C 175.980145 297.279976 175.499095 291.129068 176.988568 285.480639 " stroke="#335894" stroke-width="1.5" stroke-opacity="1" stroke-miterlimit="10"/><g clip-path="url(#0ca9c96a1d)"><path fill="#7ac2e2" d="M 773.425781 77.878906 C 770.457031 84.882812 764.109375 98.058594 760.515625 104.757812 C 753.160156 118.425781 747.65625 136.523438 759.109375 149.675781 C 767.421875 159.210938 783.578125 161.292969 794.75 155.078125 C 807.9375 147.734375 809.886719 131.851562 805.699219 118.558594 C 802.421875 108.15625 796.21875 98.957031 791.40625 89.160156 C 789.289062 84.839844 788.214844 81.902344 786.144531 77.5625 C 784.511719 74.140625 781.628906 67.761719 778.984375 64.113281 C 778.054688 65.898438 775.402344 73.1875 773.425781 77.878906 Z M 773.425781 77.878906 " fill-opacity="1" fill-rule="nonzero"/></g><path stroke-linecap="round" transform="matrix(1.096235, 0, 0, 1.096129, 603.423552, -44.634909)" fill="none" stroke-linejoin="round" d="M 174.530561 182.191385 C 186.560376 175.49167 188.338479 161.001756 184.518586 148.870996 C 181.528949 139.380922 175.870374 130.98846 171.480347 122.050756 " stroke="#335894" stroke-width="1.5" stroke-opacity="1" stroke-miterlimit="10"/><path stroke-linecap="round" transform="matrix(1.096235, 0, 0, 1.096129, 603.423552, -44.634909)" fill="none" stroke-linejoin="round" d="M 153.339415 177.148781 C 149.348481 175.028392 146.1201 171.528861 144.309927 167.398558 C 142.499753 163.261128 142.129166 158.510745 143.290813 154.148803 " stroke="#335894" stroke-width="1.5" stroke-opacity="1" stroke-miterlimit="10"/><path fill="#7ac2e2" d="M 882.007812 108.945312 C 878.6875 116.804688 871.5625 131.578125 867.515625 139.085938 C 859.273438 154.421875 853.089844 174.722656 865.949219 189.476562 C 875.277344 200.175781 893.398438 202.507812 905.929688 195.539062 C 920.730469 187.304688 922.921875 169.484375 918.21875 154.566406 C 914.546875 142.890625 907.574219 132.578125 902.179688 121.59375 C 899.800781 116.75 898.605469 113.460938 896.273438 108.59375 C 894.429688 104.757812 891.195312 97.597656 888.234375 93.511719 C 887.207031 95.503906 884.234375 103.691406 882.007812 108.945312 Z M 882.007812 108.945312 " fill-opacity="1" fill-rule="nonzero"/><path stroke-linecap="round" transform="matrix(1.096235, 0, 0, 1.096129, 603.423552, -44.634909)" fill="none" stroke-linejoin="round" d="M 252.179168 213.459095 C 247.710748 211.078559 244.06902 207.158513 242.04861 202.518604 C 240.021073 197.878695 239.61129 192.550997 240.901217 187.65094 " stroke="#335894" stroke-width="1.5" stroke-opacity="1" stroke-miterlimit="10"/><path fill="#7ac2e2" d="M 814.207031 208.144531 C 810.371094 217.21875 802.148438 234.273438 797.480469 242.945312 C 787.964844 260.648438 780.816406 284.070312 795.671875 301.105469 C 806.433594 313.460938 827.363281 316.15625 841.820312 308.109375 C 858.902344 298.605469 861.433594 278.03125 856.007812 260.8125 C 851.765625 247.339844 843.71875 235.4375 837.503906 222.753906 C 834.761719 217.164062 833.371094 213.359375 830.683594 207.75 C 828.566406 203.320312 824.828125 195.066406 821.410156 190.332031 C 820.203125 192.621094 816.773438 202.070312 814.207031 208.144531 Z M 814.207031 208.144531 " fill-opacity="1" fill-rule="nonzero"/><path stroke-linecap="round" transform="matrix(1.096235, 0, 0, 1.096129, 603.423552, -44.634909)" fill="none" stroke-linejoin="round" d="M 217.468733 321.80916 C 233.051192 313.138732 235.360233 294.36884 230.410762 278.660148 C 226.540981 266.369022 219.200514 255.510496 213.53125 243.939233 C 211.029789 238.83961 209.761242 235.368588 207.309669 230.251146 " stroke="#335894" stroke-width="1.5" stroke-opacity="1" stroke-miterlimit="10"/><path stroke-linecap="round" transform="matrix(1.096235, 0, 0, 1.096129, 603.423552, -44.634909)" fill="none" stroke-linejoin="round" d="M 190.020373 315.269811 C 184.860666 312.529343 180.659495 307.999908 178.318385 302.640137 C 175.980838 297.280365 175.499788 291.129457 176.989261 285.481027 " stroke="#335894" stroke-width="1.5" stroke-opacity="1" stroke-miterlimit="10"/><g clip-path="url(#9c8bfc4387)"><path fill="#7ac2e2" d="M 422.210938 378.730469 C 419.238281 385.734375 412.890625 398.910156 409.296875 405.609375 C 401.941406 419.277344 396.4375 437.375 407.894531 450.527344 C 416.203125 460.0625 432.363281 462.148438 443.53125 455.933594 C 456.71875 448.585938 458.671875 432.703125 454.484375 419.410156 C 451.207031 409.007812 445 399.808594 440.1875 390.011719 C 438.074219 385.691406 437 382.753906 434.925781 378.414062 C 433.292969 374.992188 430.410156 368.613281 427.769531 364.964844 C 426.835938 366.75 424.183594 374.039062 422.210938 378.730469 Z M 422.210938 378.730469 " fill-opacity="1" fill-rule="nonzero"/></g><path stroke-linecap="round" transform="matrix(1.096235, 0, 0, 1.096129, 252.206302, 256.217117)" fill="none" stroke-linejoin="round" d="M 174.529192 182.190962 C 186.559007 175.491248 188.340674 161.001333 184.52078 148.870573 C 181.531143 139.380499 175.869006 130.991601 171.478978 122.050333 " stroke="#335894" stroke-width="1.5" stroke-opacity="1" stroke-miterlimit="10"/><path stroke-linecap="round" transform="matrix(1.096235, 0, 0, 1.096129, 252.206302, 256.217117)" fill="none" stroke-linejoin="round" d="M 153.341609 177.148358 C 149.350675 175.031533 146.118732 171.528438 144.308558 167.401699 C 142.498384 163.260705 142.131361 158.510322 143.289445 154.148381 " stroke="#335894" stroke-width="1.5" stroke-opacity="1" stroke-miterlimit="10"/><path fill="#7ac2e2" d="M 530.792969 409.796875 C 527.472656 417.65625 520.34375 432.429688 516.300781 439.9375 C 508.054688 455.273438 501.875 475.574219 514.734375 490.328125 C 524.0625 501.027344 542.183594 503.359375 554.710938 496.390625 C 569.511719 488.15625 571.703125 470.335938 567 455.417969 C 563.328125 443.742188 556.355469 433.429688 550.964844 422.445312 C 548.585938 417.601562 547.390625 414.3125 545.054688 409.445312 C 543.210938 405.609375 539.980469 398.449219 537.019531 394.363281 C 535.988281 396.355469 533.019531 404.546875 530.792969 409.796875 Z M 530.792969 409.796875 " fill-opacity="1" fill-rule="nonzero"/><path stroke-linecap="round" transform="matrix(1.096235, 0, 0, 1.096129, 252.206302, 256.217117)" fill="none" stroke-linejoin="round" d="M 252.181363 213.458673 C 247.709379 211.0817 244.071215 207.161654 242.050805 202.521745 C 240.019704 197.878273 239.609921 192.550574 240.899848 187.650517 " stroke="#335894" stroke-width="1.5" stroke-opacity="1" stroke-miterlimit="10"/><path fill="#7ac2e2" d="M 462.992188 508.996094 C 459.152344 518.070312 450.933594 535.128906 446.261719 543.796875 C 436.746094 561.5 429.597656 584.925781 444.453125 601.957031 C 455.21875 614.3125 476.144531 617.007812 490.605469 608.960938 C 507.683594 599.457031 510.214844 578.882812 504.789062 561.664062 C 500.546875 548.191406 492.5 536.289062 486.285156 523.605469 C 483.542969 518.015625 482.152344 514.214844 479.464844 508.601562 C 477.351562 504.171875 473.613281 495.917969 470.191406 491.183594 C 468.988281 493.472656 465.554688 502.921875 462.992188 508.996094 Z M 462.992188 508.996094 " fill-opacity="1" fill-rule="nonzero"/><path stroke-linecap="round" transform="matrix(1.096235, 0, 0, 1.096129, 252.206302, 256.217117)" fill="none" stroke-linejoin="round" d="M 217.470928 321.808738 C 233.049823 313.138309 235.358864 294.368418 230.409393 278.659725 C 226.539613 266.3686 219.199145 255.510073 213.529881 243.938811 C 211.02842 238.839187 209.759874 235.371729 207.3083 230.250724 " stroke="#335894" stroke-width="1.5" stroke-opacity="1" stroke-miterlimit="10"/><path stroke-linecap="round" transform="matrix(1.096235, 0, 0, 1.096129, 252.206302, 256.217117)" fill="none" stroke-linejoin="round" d="M 190.019004 315.269389 C 184.859297 312.52892 180.66169 307.999486 178.320579 302.639714 C 175.979469 297.279942 175.498419 291.129034 176.991456 285.480605 " stroke="#335894" stroke-width="1.5" stroke-opacity="1" stroke-miterlimit="10"/><g clip-path="url(#1e3f03c08f)"><path fill="#7ac2e2" d="M 773.425781 346.957031 C 770.457031 353.960938 764.109375 367.136719 760.515625 373.835938 C 753.160156 387.503906 747.65625 405.601562 759.109375 418.753906 C 767.421875 428.289062 783.578125 430.375 794.75 424.15625 C 807.9375 416.8125 809.886719 400.929688 805.699219 387.636719 C 802.421875 377.234375 796.21875 368.035156 791.40625 358.238281 C 789.289062 353.917969 788.214844 350.980469 786.144531 346.640625 C 784.511719 343.21875 781.628906 336.839844 778.984375 333.191406 C 778.054688 334.976562 775.402344 342.265625 773.425781 346.957031 Z M 773.425781 346.957031 " fill-opacity="1" fill-rule="nonzero"/></g><path stroke-linecap="round" transform="matrix(1.096235, 0, 0, 1.096129, 603.423552, 224.443545)" fill="none" stroke-linejoin="round" d="M 174.530561 182.191085 C 186.560376 175.491371 188.338479 161.001456 184.518586 148.870696 C 181.528949 139.380622 175.870374 130.991724 171.480347 122.050456 " stroke="#335894" stroke-width="1.5" stroke-opacity="1" stroke-miterlimit="10"/><path stroke-linecap="round" transform="matrix(1.096235, 0, 0, 1.096129, 603.423552, 224.443545)" fill="none" stroke-linejoin="round" d="M 153.339415 177.148481 C 149.348481 175.031656 146.1201 171.528561 144.309927 167.398258 C 142.499753 163.260828 142.129166 158.510445 143.290813 154.148503 " stroke="#335894" stroke-width="1.5" stroke-opacity="1" stroke-miterlimit="10"/><path fill="#7ac2e2" d="M 882.007812 378.023438 C 878.6875 385.882812 871.5625 400.65625 867.515625 408.164062 C 859.273438 423.5 853.089844 443.800781 865.949219 458.554688 C 875.277344 469.253906 893.398438 471.585938 905.929688 464.617188 C 920.730469 456.382812 922.921875 438.5625 918.21875 423.644531 C 914.546875 411.96875 907.574219 401.65625 902.179688 390.671875 C 899.800781 385.828125 898.605469 382.539062 896.273438 377.671875 C 894.429688 373.835938 891.195312 366.675781 888.234375 362.589844 C 887.207031 364.582031 884.234375 372.773438 882.007812 378.023438 Z M 882.007812 378.023438 " fill-opacity="1" fill-rule="nonzero"/><path stroke-linecap="round" transform="matrix(1.096235, 0, 0, 1.096129, 603.423552, 224.443545)" fill="none" stroke-linejoin="round" d="M 252.179168 213.458796 C 247.710748 211.078259 244.06902 207.161777 242.04861 202.518304 C 240.021073 197.878396 239.61129 192.550697 240.901217 187.65064 " stroke="#335894" stroke-width="1.5" stroke-opacity="1" stroke-miterlimit="10"/><path fill="#7ac2e2" d="M 814.207031 477.222656 C 810.371094 486.296875 802.148438 503.351562 797.480469 512.023438 C 787.964844 529.726562 780.816406 553.152344 795.671875 570.183594 C 806.433594 582.539062 827.363281 585.234375 841.820312 577.1875 C 858.902344 567.683594 861.433594 547.109375 856.007812 529.890625 C 851.765625 516.417969 843.71875 504.515625 837.503906 491.832031 C 834.761719 486.242188 833.371094 482.4375 830.683594 476.828125 C 828.566406 472.398438 824.828125 464.144531 821.410156 459.410156 C 820.203125 461.699219 816.773438 471.148438 814.207031 477.222656 Z M 814.207031 477.222656 " fill-opacity="1" fill-rule="nonzero"/><path stroke-linecap="round" transform="matrix(1.096235, 0, 0, 1.096129, 603.423552, 224.443545)" fill="none" stroke-linejoin="round" d="M 217.468733 321.808861 C 233.051192 313.138432 235.360233 294.36854 230.410762 278.659848 C 226.540981 266.368722 219.200514 255.510196 213.53125 243.938933 C 211.029789 238.83931 209.761242 235.368288 207.309669 230.250846 " stroke="#335894" stroke-width="1.5" stroke-opacity="1" stroke-miterlimit="10"/><path stroke-linecap="round" transform="matrix(1.096235, 0, 0, 1.096129, 603.423552, 224.443545)" fill="none" stroke-linejoin="round" d="M 190.020373 315.269511 C 184.860666 312.529043 180.659495 307.999608 178.318385 302.639837 C 175.980838 297.280065 175.499788 291.129157 176.989261 285.480727 " stroke="#335894" stroke-width="1.5" stroke-opacity="1" stroke-miterlimit="10"/><g clip-path="url(#9caf359cca)"><path fill="#7ac2e2" d="M 597.820312 528.171875 C 594.847656 535.175781 588.5 548.351562 584.90625 555.050781 C 577.550781 568.71875 572.046875 586.816406 583.503906 599.96875 C 591.8125 609.503906 607.96875 611.585938 619.140625 605.371094 C 632.328125 598.027344 634.28125 582.144531 630.09375 568.847656 C 626.8125 558.445312 620.609375 549.25 615.796875 539.453125 C 613.679688 535.132812 612.605469 532.195312 610.535156 527.855469 C 608.902344 524.433594 606.019531 518.054688 603.375 514.40625 C 602.445312 516.191406 599.792969 523.480469 597.820312 528.171875 Z M 597.820312 528.171875 " fill-opacity="1" fill-rule="nonzero"/></g><path stroke-linecap="round" transform="matrix(1.096235, 0, 0, 1.096129, 427.814937, 405.657864)" fill="none" stroke-linejoin="round" d="M 174.529868 182.191564 C 186.559683 175.488286 188.34135 160.998371 184.521456 148.871175 C 181.528255 139.381101 175.869681 130.988639 171.479654 122.050935 " stroke="#335894" stroke-width="1.5" stroke-opacity="1" stroke-miterlimit="10"/><path stroke-linecap="round" transform="matrix(1.096235, 0, 0, 1.096129, 427.814937, 405.657864)" fill="none" stroke-linejoin="round" d="M 153.338722 177.14896 C 149.351351 175.028571 146.119407 171.52904 144.309234 167.398737 C 142.49906 163.261307 142.128473 158.510924 143.29012 154.148982 " stroke="#335894" stroke-width="1.5" stroke-opacity="1" stroke-miterlimit="10"/><path fill="#7ac2e2" d="M 706.402344 559.238281 C 703.078125 567.097656 695.953125 581.871094 691.910156 589.378906 C 683.664062 604.714844 677.480469 625.015625 690.339844 639.769531 C 699.671875 650.46875 717.789062 652.800781 730.320312 645.832031 C 745.121094 637.597656 747.3125 619.777344 742.609375 604.855469 C 738.9375 593.183594 731.964844 582.867188 726.570312 571.886719 C 724.191406 567.039062 722.996094 563.753906 720.664062 558.886719 C 718.820312 555.050781 715.585938 547.890625 712.628906 543.804688 C 711.597656 545.796875 708.625 553.984375 706.402344 559.238281 Z M 706.402344 559.238281 " fill-opacity="1" fill-rule="nonzero"/><path stroke-linecap="round" transform="matrix(1.096235, 0, 0, 1.096129, 427.814937, 405.657864)" fill="none" stroke-linejoin="round" d="M 252.178475 213.459274 C 247.710054 211.078738 244.068327 207.158692 242.05148 202.518783 C 240.02038 197.878874 239.610597 192.551176 240.900524 187.651119 " stroke="#335894" stroke-width="1.5" stroke-opacity="1" stroke-miterlimit="10"/><path fill="#7ac2e2" d="M 638.597656 658.4375 C 634.761719 667.511719 626.539062 684.566406 621.871094 693.238281 C 612.355469 710.941406 605.207031 734.363281 620.0625 751.398438 C 630.828125 763.753906 651.753906 766.449219 666.214844 758.402344 C 683.292969 748.898438 685.824219 728.324219 680.398438 711.105469 C 676.15625 697.632812 668.109375 685.730469 661.894531 673.046875 C 659.152344 667.457031 657.761719 663.652344 655.074219 658.042969 C 652.960938 653.613281 649.222656 645.359375 645.800781 640.625 C 644.59375 642.914062 641.164062 652.363281 638.597656 658.4375 Z M 638.597656 658.4375 " fill-opacity="1" fill-rule="nonzero"/><path stroke-linecap="round" transform="matrix(1.096235, 0, 0, 1.096129, 427.814937, 405.657864)" fill="none" stroke-linejoin="round" d="M 217.471604 321.809339 C 233.050499 313.138911 235.359539 294.369019 230.410069 278.660327 C 226.540288 266.369201 219.199821 255.510675 213.530556 243.939412 C 211.029096 238.839789 209.760549 235.368767 207.308976 230.251325 " stroke="#335894" stroke-width="1.5" stroke-opacity="1" stroke-miterlimit="10"/><path stroke-linecap="round" transform="matrix(1.096235, 0, 0, 1.096129, 427.814937, 405.657864)" fill="none" stroke-linejoin="round" d="M 190.01968 315.26999 C 184.859973 312.529522 180.658802 308.000087 178.321255 302.640316 C 175.980145 297.280544 175.499095 291.129636 176.988568 285.481206 " stroke="#335894" stroke-width="1.5" stroke-opacity="1" stroke-miterlimit="10"/></svg>